<svg width="28" height="24" viewBox="0 0 28 24" fill="none" xmlns="http://www.w3.org/2000/svg">
<g filter="url(#filter0_d_84_32)">
<path d="M4.63474 9.2969L4.5918 9.30057L4.59057 9.30067L4.48134 9.30999L4.01484 9.34977C4.0143 9.34658 4.01379 9.34337 4.01332 9.34016L4.48622 9.30392L4.59035 9.29593L4.59159 9.29584L4.63292 9.29267M4.63474 9.2969L4.66952 9.29394L4.69385 9.29186M4.63474 9.2969L4.63292 9.29267M4.63474 9.2969L4.63292 9.29267M4.69385 9.29186L5.11302 9.45043L4.69385 9.29186M4.69385 9.29186L4.68536 9.28865M4.69385 9.29186L4.69385 9.29186M4.69385 9.29186L5.14151 9.25369L4.68536 9.28865M4.69385 9.29186L4.68536 9.28865M4.68536 9.28865L4.65094 9.27563M4.68536 9.28865L4.68536 9.28865M4.65094 9.27563L4.68536 9.28865M4.65094 9.27563L4.62061 9.26416M4.65094 9.27563L4.62061 9.26416M4.68536 9.28865L4.66568 9.29016L4.63292 9.29267M4.63292 9.29267L4.62061 9.26416M4.63292 9.29267L4.62061 9.26416M4 8.94159L4.31122 8.94084L4.48088 8.94043M4 8.94159L4.54386 8.29136C4.44012 8.29634 4.33445 8.31978 4.23208 8.36397L4.48004 8.93846L4.48021 8.93885M4 8.94159C4 8.94068 4 8.93976 4 8.93885M4 8.94159L4 8.93885M4.48088 8.94043L4.5848 9.18119L4.58507 9.18182L4.5848 9.18119L4.48089 8.94043M4.48088 8.94043H4.48089M4.48088 8.94043L4.48021 8.93885M4.48089 8.94043L4.57389 8.9402L4.57603 8.9402L4.77879 8.93971L5.13208 8.93886L4.77948 8.93885H4.57597H4.57383H4.48021M4.48089 8.94043L4.48021 8.93885M4.48021 8.93885H4.30921H4M4.48021 8.93885L4.48003 8.93846L4.23208 8.36397C4.16064 8.3948 4.08958 8.43632 4.02235 8.48954C4.11246 7.59324 4.47303 6.73308 5.06935 6.00439L4 8.93885M7.45664 14.8333L7.45663 14.8333L7.45664 14.8333ZM4.00015 9.02945L4.54203 9.23443L4.00015 9.02945C4.00015 9.02945 4.00015 9.02945 4.00015 9.02945ZM7.46474 14.8154V14.8154Z" stroke="#F931B1" stroke-width="3" shape-rendering="crispEdges"/>
</g>
<defs>
<filter id="filter0_d_84_32" x="0" y="0" width="28" height="24" filterUnits="userSpaceOnUse" color-interpolation-filters="sRGB">
<feFlood flood-opacity="0" result="BackgroundImageFix"/>
<feColorMatrix in="SourceAlpha" type="matrix" values="0 0 0 0 0 0 0 0 0 0 0 0 0 0 0 0 0 0 127 0" result="hardAlpha"/>
<feOffset/>
<feGaussianBlur stdDeviation="2"/>
<feComposite in2="hardAlpha" operator="out"/>
<feColorMatrix type="matrix" values="0 0 0 0 1 0 0 0 0 1 0 0 0 0 1 0 0 0 0.25 0"/>
<feBlend mode="normal" in2="BackgroundImageFix" result="effect1_dropShadow_84_32"/>
<feBlend mode="normal" in="SourceGraphic" in2="effect1_dropShadow_84_32" result="shape"/>
</filter>
</defs>
</svg>
