<svg width="35" height="40" viewBox="0 0 35 40" fill="none" xmlns="http://www.w3.org/2000/svg">
<g id="purchase">
<path id="Vector" d="M26.25 12.457V8.76369C26.25 7.61283 26.0237 6.47323 25.5839 5.40997C25.1442 4.34671 24.4997 3.38061 23.6872 2.56683C22.8747 1.75304 21.9101 1.10751 20.8485 0.667096C19.7869 0.226679 18.6491 0 17.5 0C16.3509 0 15.2131 0.226679 14.1515 0.667096C13.0899 1.10751 12.1253 1.75304 11.3128 2.56683C10.5003 3.38061 9.85578 4.34671 9.41605 5.40997C8.97633 6.47323 8.75 7.61283 8.75 8.76369V17.5274C8.75 17.8594 8.8817 18.1779 9.11612 18.4127C9.35054 18.6474 9.66848 18.7793 10 18.7793C10.3315 18.7793 10.6495 18.6474 10.8839 18.4127C11.1183 18.1779 11.25 17.8594 11.25 17.5274V14.9609H21.25V12.457H11.25V8.76369C11.25 7.1035 11.9085 5.5113 13.0806 4.33736C14.2527 3.16342 15.8424 2.50391 17.5 2.50391C19.1576 2.50391 20.7473 3.16342 21.9194 4.33736C23.0915 5.5113 23.75 7.1035 23.75 8.76369V17.4648C23.75 17.7968 23.8817 18.1153 24.1161 18.3501C24.3505 18.5848 24.6685 18.7167 25 18.7167C25.3315 18.7167 25.6495 18.5848 25.8839 18.3501C26.1183 18.1153 26.25 17.7968 26.25 17.4648V14.9609H32.5V37.4961H2.5V14.9609H6.25V12.457H0V37.6088C0 38.243 0.251539 38.8512 0.699282 39.2996C1.14703 39.7481 1.7543 40 2.3875 40H32.6125C33.2457 40 33.853 39.7481 34.3007 39.2996C34.7485 38.8512 35 38.243 35 37.6088V12.457H26.25Z" fill="url(#paint0_linear_1_534)"/>
<path id="vector" fill-rule="evenodd" clip-rule="evenodd" d="M20.7071 24.2929C21.0976 24.6834 21.0976 25.3166 20.7071 25.7071L16.7071 29.7071C16.3166 30.0976 15.6834 30.0976 15.2929 29.7071L13.2929 27.7071C12.9024 27.3166 12.9024 26.6834 13.2929 26.2929C13.6834 25.9024 14.3166 25.9024 14.7071 26.2929L16 27.5858L19.2929 24.2929C19.6834 23.9024 20.3166 23.9024 20.7071 24.2929Z" fill="url(#paint1_linear_1_534)"/>
</g>
<defs>
<linearGradient id="paint0_linear_1_534" x1="37" y1="-2.5" x2="-3" y2="40" gradientUnits="userSpaceOnUse">
<stop stop-color="white"/>
<stop offset="0.57" stop-color="#7000AE"/>
<stop offset="1" stop-color="#FF24B0"/>
</linearGradient>
<linearGradient id="paint1_linear_1_534" x1="36.5" y1="10" x2="16.9965" y2="46.9447" gradientUnits="userSpaceOnUse">
<stop stop-color="white"/>
<stop offset="0.57" stop-color="#7000AE"/>
<stop offset="1" stop-color="#FF24B0"/>
</linearGradient>
</defs>
</svg>
