<svg width="5" height="23" viewBox="0 0 5 23" fill="none" xmlns="http://www.w3.org/2000/svg">
<path d="M2.36757 12.7083C3.03853 12.7083 3.58244 12.1674 3.58244 11.5C3.58244 10.8327 3.03853 10.2917 2.36757 10.2917C1.69662 10.2917 1.15271 10.8327 1.15271 11.5C1.15271 12.1674 1.69662 12.7083 2.36757 12.7083Z" fill="white"/>
<path d="M2.36757 4.25001C3.03853 4.25001 3.58244 3.70902 3.58244 3.04168C3.58244 2.37433 3.03853 1.83334 2.36757 1.83334C1.69662 1.83334 1.15271 2.37433 1.15271 3.04168C1.15271 3.70902 1.69662 4.25001 2.36757 4.25001Z" fill="white"/>
<path d="M2.36757 21.1667C3.03853 21.1667 3.58244 20.6257 3.58244 19.9583C3.58244 19.291 3.03853 18.75 2.36757 18.75C1.69662 18.75 1.15271 19.291 1.15271 19.9583C1.15271 20.6257 1.69662 21.1667 2.36757 21.1667Z" fill="white"/>
<path d="M2.36757 12.7083C3.03853 12.7083 3.58244 12.1674 3.58244 11.5C3.58244 10.8327 3.03853 10.2917 2.36757 10.2917C1.69662 10.2917 1.15271 10.8327 1.15271 11.5C1.15271 12.1674 1.69662 12.7083 2.36757 12.7083Z" stroke="white" stroke-width="2" stroke-linecap="round" stroke-linejoin="round"/>
<path d="M2.36757 4.25001C3.03853 4.25001 3.58244 3.70902 3.58244 3.04168C3.58244 2.37433 3.03853 1.83334 2.36757 1.83334C1.69662 1.83334 1.15271 2.37433 1.15271 3.04168C1.15271 3.70902 1.69662 4.25001 2.36757 4.25001Z" stroke="white" stroke-width="2" stroke-linecap="round" stroke-linejoin="round"/>
<path d="M2.36757 21.1667C3.03853 21.1667 3.58244 20.6257 3.58244 19.9583C3.58244 19.291 3.03853 18.75 2.36757 18.75C1.69662 18.75 1.15271 19.291 1.15271 19.9583C1.15271 20.6257 1.69662 21.1667 2.36757 21.1667Z" stroke="white" stroke-width="2" stroke-linecap="round" stroke-linejoin="round"/>
</svg>
