<svg width="31" height="32" viewBox="0 0 31 32" fill="none" xmlns="http://www.w3.org/2000/svg">
<g clip-path="url(#clip0_174_42)">
<path d="M24.5661 0.555664L24.6575 0.574183L24.8403 0.796405L24.9499 1.00011L25.0962 1.12974L25.2789 1.31492L25.4617 1.5927L25.6628 1.889L25.8273 2.11122L26.0101 2.2964L26.2111 2.55566L26.3391 2.64826H26.3756L26.5584 2.2964L26.6315 2.20381L26.8143 1.87048L27.0337 1.64826H27.0702L27.0519 1.75937L27.0337 1.7964L27.0154 2.03715V2.2964L27.0885 2.44455L27.1982 2.53715L27.3078 2.55566L27.5272 2.46307L27.7648 2.25937L27.8562 2.18529L28.0207 1.98159L28.4777 1.51863L28.6422 1.31492L28.7701 1.16678L29.026 0.814923L29.2271 0.574183L29.3002 0.555664L29.2819 0.666775L29.0991 1.00011L28.8432 1.44455L28.6787 1.75937L28.3131 2.31492L28.1852 2.57418L28.0024 2.85196L27.8562 3.14826L27.8379 3.24085V3.42603L27.8196 3.46307L27.8927 3.50011L28.0207 3.64826L28.0938 3.74085L28.2583 3.85196L28.6604 3.98159L29.1357 4.11122L29.5378 4.18529L29.7023 4.24085V4.31492L29.6657 4.33344H29.2453L28.8981 4.35196L28.4777 4.44455L28.3131 4.51863L28.24 4.5927L28.2218 4.74085L28.2949 4.83344V4.87048L28.368 4.90752L28.6056 5.12974L28.8067 5.2964L29.026 5.46307L29.5012 5.72233L29.9948 5.96307L30.3603 6.12974L30.8538 6.37048L30.9818 6.46307L31.0001 6.53715L30.8356 6.50011L30.5614 6.389L30.0861 6.22233L29.2819 5.92603L28.6056 5.74085L28.24 5.66678L28.1486 5.68529L28.1121 5.87048L28.039 5.96307L27.8927 6.25937L27.7648 6.68529L27.6917 7.05566V7.20381L27.7831 7.42603L27.8745 7.61122L28.1121 8.44455L28.2766 8.889L28.4411 9.12974L28.4959 9.25937L28.4411 9.24085L28.2583 9.00011L28.1486 8.85196L28.0024 8.61122L27.8379 8.22233L27.6186 7.74085L27.5089 7.5927L27.2896 7.31492L27.1433 7.11122L26.9606 6.90752L26.8326 6.75937L26.6864 6.64826L26.5036 6.55566L26.467 6.57418L26.8692 6.98159L26.924 7.11122H26.8692L26.6498 6.90752L26.4488 6.75937L26.2477 6.62974L25.8821 6.44455H25.7359L25.8456 6.68529L25.8639 6.83344V7.14826L25.8273 7.57418L25.7907 8.12974L25.7359 8.5927L25.6994 8.72233H25.6445L25.6262 8.64826L25.6628 8.25937V8.05566L25.6262 7.64826V7.25937L25.6445 6.83344L25.5714 6.77789L25.5348 6.70381L25.5531 6.57418L25.6811 6.44455L25.48 6.31492H25.2058L25.0048 6.42603L24.8037 6.55566L24.5113 6.72233L24.2554 6.90752L24.0177 7.11122L23.7801 7.2964L23.6522 7.40752H23.6156L23.707 7.57418L23.8715 7.77789L24.0177 7.98159L24.1823 8.18529L24.4747 8.62974L24.6027 8.83344L24.7672 9.07418L24.9317 9.389L25.0596 9.7964L25.1327 10.0186L25.2424 10.2594V10.3705L24.8585 11.0186L24.6575 11.2779L24.5113 11.4631L24.3285 11.7223L24.1091 12.0371L23.9629 12.2223L23.7801 12.4631L23.6156 12.6853L23.4328 12.926L23.2683 13.1483L23.0856 13.389L22.8479 13.6853L22.4458 14.2038L22.2082 14.5371L22.1534 14.6483V14.7779L22.263 15.1483L22.4275 15.6483L22.6103 16.1668L22.7383 16.5927L22.8479 17.0371L22.9576 17.6297L23.049 18.352L23.1221 19.0927L23.1587 19.8149V20.4816L23.1221 21.0557L23.049 21.7223L22.9759 22.2038L22.8845 22.6668L22.7383 23.3334L22.5189 24.0001L22.3179 24.5186L22.0802 25.0557L21.8061 25.6112L21.605 25.9446L21.4588 26.2038L21.1481 26.6668L20.9104 27.0001L20.6728 27.2964L20.5083 27.5001L20.3255 27.7038L20.1976 27.852L19.6127 28.4446L19.4665 28.5742L19.2106 28.8149L19.0095 28.9816L18.7719 29.1668L18.4794 29.389L18.1321 29.6297L17.858 29.8149L17.4193 30.0742L17.0172 30.2964L16.7247 30.4446L16.1946 30.6853L15.5183 30.9446L14.9334 31.1297L14.2754 31.2964L13.6905 31.4075L13.0325 31.5001L12.3014 31.5742L12.0089 31.5927H11.1498L10.4735 31.5371L9.96173 31.4631L9.41338 31.352L8.84676 31.2038L7.60383 30.7964L7.07376 30.5742L6.54369 30.3149L6.14157 30.0927L5.83084 29.9075L5.48355 29.6853L5.17282 29.4631L4.88037 29.2408L4.66103 29.0557L4.47824 28.9075L4.22235 28.6853L4.07612 28.5557L3.85678 28.352L3.61916 28.1297L3.30843 27.8149L3.18048 27.6668L3.01598 27.4816L2.77836 27.1668L2.55902 26.8705L2.3214 26.5186L2.10206 26.1668L1.7365 25.5186L1.46232 24.9446L1.22471 24.389L1.07848 23.9631L0.731192 22.889L0.603244 22.426L0.475296 21.7594L0.365626 21.0742L0.329069 20.7223L0.310791 20.4075V19.5742L0.347348 18.9816L0.475296 18.0742L0.603244 17.2779L0.712914 16.7964L0.932253 16.1297L1.24298 15.2223L1.44405 14.7594L1.59027 14.5001L1.71822 14.2408L1.901 13.9075L2.04723 13.6668L2.28485 13.2779L2.4128 13.0927L2.63214 12.7964L2.74181 12.6297L2.88803 12.426L2.94287 12.352H2.97942L2.9977 12.2964L3.08909 12.2038L3.29015 11.9816L3.4181 11.8334L3.69228 11.5742L3.80195 11.4631H3.8385L3.87506 11.389H3.91162L3.92989 11.3334L4.18579 11.1297L4.40513 10.926L4.64275 10.7223L4.9352 10.5186L5.15454 10.3334L5.42872 10.1483L5.83084 9.889L6.14157 9.68529L6.6168 9.42603L6.8727 9.2964L7.20171 9.14826L7.56728 9.00011L8.2253 8.77789L8.59086 8.66678L9.04782 8.55566L9.72412 8.46307L10.1994 8.42603L11.3143 8.389H12.3379L13.3981 8.42603L14.2023 8.50011L14.6593 8.57418L14.9152 8.64826L15.1345 8.74085L15.5366 8.85196L15.8291 8.94455L15.9387 8.92603L16.1398 8.66678L16.286 8.48159L16.414 8.33344L16.5419 8.14826L16.6699 7.94455L16.8161 7.74085L16.9258 7.5927L17.1451 7.27789L17.3827 6.94455L17.5472 6.72233L17.6935 6.51863L17.8214 6.35196L18.0225 6.0927L18.187 5.889L18.4063 5.57418L18.516 5.42603L18.6256 5.24085L18.7719 5.14826L18.8084 5.12974H19.0826L19.7041 5.20381L20.1245 5.2964L20.49 5.42603L20.7825 5.51863L21.0567 5.5927L21.3308 5.70381L21.6233 5.90752L21.8061 6.03715L22.1534 6.24085L22.3361 6.37048L22.6469 6.53715L22.7931 6.5927L22.8662 6.62974L22.9028 6.53715L23.1404 6.2964L23.3963 6.0927L23.6705 5.889L23.8715 5.75937L24.0543 5.62974L24.3102 5.46307L24.4199 5.33344L24.493 5.14826L24.5478 4.96307L24.4564 4.77789L24.2919 4.62974L24.0909 4.50011L23.7436 4.35196L23.4146 4.27789L22.8297 4.25937L22.3544 4.27789L22.3361 4.22233L22.5006 4.18529L23.1952 4.11122L23.6705 4.07418L24.2188 3.98159L24.4199 3.92603L24.6027 3.87048L24.7854 3.83344L24.8951 3.7964L24.9682 3.64826L24.9317 3.42603L24.8585 3.20381L24.7123 2.90752L24.6392 2.81492L24.3833 2.61122L24.2005 2.44455V2.37048H24.365L24.5844 2.42603L24.8403 2.57418L25.0962 2.66678L25.2424 2.74085L25.2241 2.57418L25.1144 2.24085L24.9682 1.85196L24.8768 1.53715L24.7306 1.24085L24.5113 0.740849V0.648257L24.5661 0.555664Z" fill="#FC2E27"/>
<path d="M24.5661 0.555664L24.6575 0.574183L24.8403 0.796405L24.9499 1.00011L25.0962 1.12974L25.2789 1.31492L25.4617 1.5927L25.6628 1.889L25.8273 2.11122L26.0101 2.2964L26.2111 2.55566L26.3391 2.64826H26.3756L26.5584 2.2964L26.6315 2.20381L26.8143 1.87048L27.0337 1.64826H27.0702L27.0519 1.75937L27.0337 1.7964L27.0154 2.03715V2.2964L27.0885 2.44455L27.1982 2.53715L27.3078 2.55566L27.5272 2.46307L27.7648 2.25937L27.8562 2.18529L28.0207 1.98159L28.4777 1.51863L28.6422 1.31492L28.7701 1.16678L29.026 0.814923L29.2271 0.574183L29.3002 0.555664L29.2819 0.666775L29.0991 1.00011L28.8432 1.44455L28.6787 1.75937L28.3131 2.31492L28.1852 2.57418L28.0024 2.85196L27.8562 3.14826L27.8379 3.24085V3.42603L27.8196 3.46307L27.8927 3.50011L28.0207 3.64826L28.0938 3.74085L28.2583 3.85196L28.6604 3.98159L29.1357 4.11122L29.5378 4.18529L29.7023 4.24085V4.31492L29.6657 4.33344H29.2453L28.8981 4.35196L28.4777 4.44455L28.3131 4.51863L28.24 4.5927L28.2218 4.74085L28.2949 4.83344V4.87048L28.368 4.90752L28.6056 5.12974L28.8067 5.2964L29.026 5.46307L29.5012 5.72233L29.9948 5.96307L30.3603 6.12974L30.8538 6.37048L30.9818 6.46307L31.0001 6.53715L30.8356 6.50011L30.5614 6.389L30.0861 6.22233L29.2819 5.92603L28.6056 5.74085L28.24 5.66678L28.1486 5.68529L28.1121 5.87048L28.039 5.96307L27.8927 6.25937L27.7648 6.68529L27.6917 7.05566V7.20381L27.7831 7.42603L27.8745 7.61122L28.1121 8.44455L28.2766 8.889L28.4411 9.12974L28.4959 9.25937L28.4411 9.24085L28.2583 9.00011L28.1486 8.85196L28.0024 8.61122L27.8379 8.22233L27.6186 7.74085L27.5089 7.5927L27.2896 7.31492L27.1433 7.11122L26.9606 6.90752L26.8326 6.75937L26.6864 6.64826L26.5036 6.55566L26.467 6.57418L26.8692 6.98159L26.924 7.11122H26.8692L26.6498 6.90752L26.4488 6.75937L26.2477 6.62974L25.8821 6.44455H25.7359L25.8456 6.68529L25.8639 6.83344V7.14826L25.8273 7.57418L25.7907 8.12974L25.7359 8.5927L25.6994 8.72233H25.6445L25.6262 8.64826L25.6628 8.25937V8.05566L25.6262 7.64826V7.25937L25.6445 6.83344L25.5714 6.77789L25.5348 6.70381L25.5531 6.57418L25.6811 6.44455L25.48 6.31492H25.2058L25.0048 6.42603L24.8037 6.55566L24.5113 6.72233L24.2554 6.90752L24.0177 7.11122L23.7801 7.2964L23.6522 7.40752H23.6156L23.707 7.57418L23.8715 7.77789L24.0177 7.98159L24.1823 8.18529L24.4747 8.62974L24.6027 8.83344L24.7672 9.07418L24.9317 9.389L25.0596 9.7964L25.1327 10.0186L25.2424 10.2594V10.3705L24.8585 11.0186L24.6575 11.2779L24.5113 11.4631L24.3285 11.7223L24.1091 12.0371L23.9629 12.2223L23.7801 12.4631L23.6156 12.6853L23.4328 12.926L23.2683 13.1483L23.0856 13.389L22.8479 13.6853L22.4458 14.2038L22.2082 14.5371L22.1534 14.6483V14.7779L22.263 15.1483L22.4275 15.6483L22.6103 16.1668L22.7383 16.5927L22.8479 17.0371L22.9576 17.6297L23.049 18.352L23.1221 19.0927L23.1587 19.8149V20.4816L23.1221 21.0557L23.049 21.7223L22.9759 22.2038L22.8845 22.6668L22.7383 23.3334L22.5189 24.0001L22.3179 24.5186L22.0802 25.0557L21.8061 25.6112L21.605 25.9446L21.4588 26.2038L21.1481 26.6668L20.9104 27.0001L20.6728 27.2964L20.5083 27.5001L20.3255 27.7038L20.1976 27.852L19.6127 28.4446L19.4665 28.5742L19.2106 28.8149L19.0095 28.9816L18.7719 29.1668L18.4794 29.389L18.1321 29.6297L17.858 29.8149L17.4193 30.0742L17.0172 30.2964L16.7247 30.4446L16.1946 30.6853L15.5183 30.9446L14.9334 31.1297L14.2754 31.2964L13.6905 31.4075L13.0325 31.5001L12.3014 31.5742L12.0089 31.5927H11.1498L10.4735 31.5371L9.96173 31.4631L9.41338 31.352L8.84676 31.2038L7.60383 30.7964L7.07376 30.5742L6.54369 30.3149L6.14157 30.0927L5.83084 29.9075L5.48355 29.6853L5.17282 29.4631L4.88037 29.2408L4.66103 29.0557L4.47824 28.9075L4.22235 28.6853L4.07612 28.5557L3.85678 28.352L3.61916 28.1297L3.30843 27.8149L3.18048 27.6668L3.01598 27.4816L2.77836 27.1668L2.55902 26.8705L2.3214 26.5186L2.10206 26.1668L1.7365 25.5186L1.46232 24.9446L1.22471 24.389L1.07848 23.9631L0.731192 22.889L0.603244 22.426L0.475296 21.7594L0.365626 21.0742L0.329069 20.7223L0.310791 20.4075V19.5742L0.347348 18.9816L0.475296 18.0742L0.603244 17.2779L0.658079 17.0186L0.712914 16.9816L0.74947 17.1112L0.767749 17.2964V17.5186L0.804305 17.6297L0.786027 17.852H0.822583L0.85914 17.926V18.0557L0.877418 18.0742L0.913975 18.3149L0.932253 18.5186L0.950532 18.7779V19.0371L1.07848 19.8149L1.16987 20.0927L1.22471 20.1668L1.27954 20.3334L1.33438 20.426V20.4816H1.37093V20.5186H1.40749L1.49888 20.6853L1.57199 20.8149L1.69994 21.0371V21.0742L1.75478 21.0927L1.80961 21.1668V21.2038H1.84617L1.91928 21.3334L2.04723 21.5186L2.12034 21.6297L2.19346 21.7038L2.39452 21.9816L2.48591 22.0557L2.59558 22.2223L2.77836 22.3705L2.86975 22.4631L2.9977 22.5742L3.07081 22.6112L3.16221 22.7038L3.27188 22.7964L3.36327 22.889V22.926L3.45466 22.9631L3.50949 23.0371L3.65572 23.0927L3.76539 23.1853V23.2223H3.80195V23.2594L3.89334 23.2779L3.98473 23.4075L4.05784 23.4446L4.13096 23.5742H4.2589L4.27718 23.6112L4.2589 23.7223L4.40513 23.7779L4.45997 23.8149L4.42341 23.8334V23.9075H4.56964L4.64275 23.9446L4.66103 24.0557V24.0927L4.75242 24.0001L4.78897 23.9446H4.88037L4.86209 24.1112V24.2223L4.82553 24.2594L4.88037 24.2964H5.02659L4.99004 24.389L4.97176 24.4446H5.02659V24.4816H5.06315L5.08143 24.6483H5.11798L5.17282 24.7779H5.11798V24.7408L5.02659 24.7038L4.99004 24.8334L5.04487 24.852L5.06315 24.926L5.09971 24.9446L5.11798 25.1112L5.20938 25.1483L5.1911 25.0742L5.20938 25.0371H5.31905L5.33732 25.2038L5.41044 25.2408L5.44699 25.2779V25.352L5.59322 25.3334L5.70289 25.3705L5.72117 25.4631L5.66633 25.5001L5.79428 25.5557L5.81256 25.6112L5.83084 25.7038L5.95879 25.7779L5.99534 25.7408H6.06846L6.15985 25.8334L6.1964 25.889V25.9446L6.30607 25.926L6.37919 26.0371L6.39747 26.0927L6.43402 26.1112V26.1483H6.47058L6.54369 26.2408L6.68992 26.2223L6.78131 26.352L6.79959 26.3149H6.83614V26.2594H6.8727L6.90926 26.352H6.94581L6.96409 26.4075L7.07376 26.426H7.11032L7.1286 26.5557L7.21999 26.5927L7.31138 26.5371L7.40277 26.5186L7.42105 26.5742L7.62211 26.6297L7.69522 26.6483L7.7135 26.7038H7.82317L7.87801 26.7223V26.7594L7.98768 26.7408L8.06079 26.7779V26.852H8.20702L8.28013 26.8705L8.35324 26.852L8.3898 26.8705V26.9075L8.5543 26.889L8.60914 27.0001L8.70053 26.9816L8.75537 26.9075L8.84676 26.889L8.93815 26.9075L8.95643 27.0186L9.10265 26.9446L9.19405 26.926L9.35855 26.9446L9.41338 26.9816H9.55961L9.651 26.926L9.77895 26.9446L9.83379 26.9631H9.96173L9.99829 26.9446H10.108L10.1445 26.926H10.2725L10.4735 26.9075L10.6015 26.926L10.7111 26.9075L10.8391 26.926V26.889H11.0767L11.095 26.8705H11.2412L11.3509 26.889L11.5337 26.852L11.6616 26.8149L11.7713 26.7964L11.8992 26.852L11.9541 26.8334L11.9723 26.7779L12.2465 26.7408L12.3562 26.6853H12.4841L12.539 26.7223L12.6304 26.7038L12.6486 26.6112L12.7583 26.5557L12.868 26.5742V26.5371L13.0325 26.5186L13.069 26.4631L13.2335 26.4446L13.4163 26.4075L13.4529 26.3705L13.5626 26.3334L13.5991 26.2964H13.7819L13.983 26.2223L14.0378 26.1668L14.2023 26.1112L14.312 26.0001L14.3302 25.9446L14.4765 25.889L14.5679 25.7964L14.6227 25.8334L14.6593 25.8149L14.6958 25.7223H14.7324V25.6853L14.8786 25.6483L14.9517 25.5371L15.0797 25.5001L15.1528 25.4631L15.1893 25.389L15.2807 25.3705L15.3356 25.2779L15.5549 25.2408L15.5732 25.1668H15.6097V25.1297L15.7377 25.1112L15.8108 25.0001L15.957 24.9075L15.9936 24.8149L16.0667 24.7964L16.1215 24.8149L16.1581 24.7223L16.2129 24.6668L16.5236 24.5186L16.5968 24.4075H16.6333L16.6516 24.3149L16.7064 24.2594L16.8709 24.1297L16.9806 24.0927L17.0354 23.926L17.1268 23.8334L17.1999 23.7408H17.2365V23.7038L17.3462 23.6297H17.3827L17.4193 23.5557L17.5107 23.4816L17.5655 23.3705L17.6752 23.3149L17.7848 23.1668L17.8945 22.9816H17.9311L17.9676 22.889L18.0407 22.7594L18.1321 22.6668L18.2052 22.5742L18.3149 22.2779L18.3698 22.2594V22.2223L18.4429 22.1483L18.4611 22.0371L18.5343 21.9816L18.5708 21.852L18.6439 21.7038L18.717 21.5927L18.7536 21.4631L18.8633 21.3334L18.8998 21.2223L18.9181 21.0927L19.0278 20.889L19.0643 20.6483L19.1192 20.5742L19.1923 20.3334L19.2106 20.2594L19.2288 20.1297L19.3019 19.8334L19.3385 19.7779L19.3568 19.5371L19.4116 19.3705L19.3933 19.2964L19.4116 19.1483V19.0001L19.4482 18.889V18.7594L19.4665 18.6668V18.2594L19.4847 18.1297L19.503 18.1112L19.4847 17.9075V17.5371L19.503 17.426L19.4847 17.2964V17.0557L19.4299 16.8334L19.4116 16.5742L19.3568 16.4631V16.352L19.3202 16.2964L19.2837 16.0927L19.2471 16.0557V15.8705L19.2288 15.8334L19.174 15.852L19.1374 15.7964V15.6853L19.046 15.5742L19.0095 15.426L18.9912 15.4075L18.9547 15.3149V15.2408L18.9181 15.2223V15.0742L18.8998 15.0371L18.8267 15.0557L18.8084 15.0001V14.852L18.8267 14.7779L18.6805 14.7223L18.6074 14.389L18.516 14.2964L18.4794 14.2223L18.4611 14.1483L18.4429 14.0557L18.3698 14.0186L18.2784 13.889L18.2052 13.8149V13.6668L18.0407 13.5186L17.9494 13.426L17.9311 13.352L17.8214 13.2779L17.7848 13.1483L17.73 13.1297L17.6752 13.0557L17.7117 13.0371L17.6203 12.9446L17.5655 12.8705L17.4741 12.8149L17.3279 12.6853L17.2182 12.5927L17.1085 12.5557L17.0172 12.4631L16.8892 12.4075L16.8344 12.3149L16.7064 12.2408L16.6881 12.1483L16.5968 12.1297L16.5236 11.9631L16.4323 11.852L16.3591 11.7779L16.3226 11.6853L16.2495 11.6483L16.1032 11.5001L16.0667 11.389L15.9936 11.3705V11.3334L15.9205 11.3149L15.8473 11.2408L15.8291 11.1297L15.7925 11.1112L15.7377 11.0186L15.6828 10.889L15.5549 10.6297L15.5183 10.6112V10.5557H15.4818L15.3721 10.4075L15.3356 10.3334L15.1893 10.2038L15.0614 10.0186L14.9883 9.92603V9.889L14.8969 9.85196L14.8055 9.72233L14.7689 9.62974L14.7141 9.64826L14.641 9.57418V9.53715L14.5861 9.51863L14.5313 9.40752L14.4582 9.37048V9.2964L14.3851 9.25937L14.2571 9.20381L14.1475 9.14826L13.983 9.11122L13.8002 9.00011L13.6357 8.92603L13.3798 8.87048L13.2884 8.7964L13.197 8.75937H12.9959L12.8863 8.70381L12.8131 8.72233L12.5938 8.66678H12.4293L12.3014 8.64826L12.21 8.61122H12.0089L11.8992 8.5927L11.6799 8.57418L11.4423 8.5927L11.2595 8.57418L10.9853 8.5927L10.8574 8.53715L10.6563 8.5927L10.4187 8.57418V8.61122L10.2725 8.62974L10.2542 8.57418L10.1262 8.53715L10.1628 8.51863L10.1994 8.42603L11.3143 8.389H12.3379L13.3981 8.42603L14.2023 8.50011L14.6593 8.57418L14.9152 8.64826L15.1345 8.74085L15.5366 8.85196L15.8291 8.94455L15.9387 8.92603L16.1398 8.66678L16.286 8.48159L16.414 8.33344L16.5419 8.14826L16.6699 7.94455L16.8161 7.74085L16.9258 7.5927L17.1451 7.27789L17.3827 6.94455L17.5472 6.72233L17.6935 6.51863L17.8214 6.35196L18.0225 6.0927L18.187 5.889L18.4063 5.57418L18.516 5.42603L18.6256 5.24085L18.7719 5.14826L18.8084 5.12974H19.0826L19.7041 5.20381L20.1245 5.2964L20.49 5.42603L20.7825 5.51863L21.0567 5.5927L21.3308 5.70381L21.6233 5.90752L21.8061 6.03715L22.1534 6.24085L22.3361 6.37048L22.6469 6.53715L22.7931 6.5927L22.8662 6.62974L22.9028 6.53715L23.1404 6.2964L23.3963 6.0927L23.6705 5.889L23.8715 5.75937L24.0543 5.62974L24.3102 5.46307L24.4199 5.33344L24.493 5.14826L24.5478 4.96307L24.4564 4.77789L24.2919 4.62974L24.0909 4.50011L23.7436 4.35196L23.4146 4.27789L22.8297 4.25937L22.3544 4.27789L22.3361 4.22233L22.5006 4.18529L23.1952 4.11122L23.6705 4.07418L24.2188 3.98159L24.4199 3.92603L24.6027 3.87048L24.7854 3.83344L24.8951 3.7964L24.9682 3.64826L24.9317 3.42603L24.8585 3.20381L24.7123 2.90752L24.6392 2.81492L24.3833 2.61122L24.2005 2.44455V2.37048H24.365L24.5844 2.42603L24.8403 2.57418L25.0962 2.66678L25.2424 2.74085L25.2241 2.57418L25.1144 2.24085L24.9682 1.85196L24.8768 1.53715L24.7306 1.24085L24.5113 0.740849V0.648257L24.5661 0.555664Z" fill="#D8160D"/>
<path d="M16.3407 10.0925H16.3956V10.1851L16.5601 10.2962L16.6332 10.3518L16.7246 10.4444L16.7977 10.5555V10.5925L16.8708 10.6296L16.9074 10.6666L16.9987 10.7036L17.0353 10.7777H17.0719V10.8333H17.1084V10.8703H17.145V10.9073H17.1815L17.2729 10.9999L17.3278 11.111L17.4374 11.2222V11.2592L17.5105 11.2962L17.7847 11.5925L18.0406 11.8333L18.1868 11.9629L18.4245 12.1666L18.6072 12.3148L18.8449 12.537L18.9911 12.6666L19.0825 12.7592L19.2653 12.9259L19.4115 13.0555L19.6308 13.2407L19.777 13.3518L19.905 13.4259V13.4629L19.9964 13.4999L20.1609 13.6296L20.234 13.6666V13.7036L20.3254 13.7407L20.3802 13.7592H20.6727L20.7275 13.7962L20.8737 13.7777L21.0565 13.7407L21.1114 13.7592L21.0931 13.7036L21.2028 13.6481L21.3124 13.611H21.4221V13.6481H21.4586L21.4769 13.5925L21.5866 13.5555V13.4999L21.7328 13.4444V13.4073V13.3148L21.7877 13.2777L21.879 13.3518L22.0436 13.2222L22.2263 13.1296L22.336 13.0925L22.3543 13.0555H22.3908L22.3726 13.1296L22.4091 13.1481V13.0925L22.464 13.037L22.3908 12.9999L22.464 12.9259H22.5005V12.9999L22.5553 12.9444L22.665 12.9259L22.7381 12.8703L22.7564 12.9259L22.8112 12.8888L22.8295 12.7962L22.994 12.7592L23.0306 12.6851H23.0671V12.7962L23.0306 12.8518L23.122 12.9444L23.2134 12.9629L23.2316 13.2036L22.994 13.4999L22.793 13.7592L22.5553 14.0555L22.2995 14.4073L22.1898 14.574L22.1532 14.6481V14.7777L22.2629 15.1481L22.4274 15.6481L22.6102 16.1666L22.7381 16.5925L22.8478 17.037L22.9575 17.6296L23.0489 18.3518L23.122 19.0925L23.1585 19.8148V20.4814L23.122 21.0555L23.0489 21.7222L22.9757 22.2036L22.8844 22.6666L22.7381 23.3333L22.5188 23.9999L22.3177 24.5185L22.0801 25.0555L21.8059 25.611L21.6049 25.9444L21.4586 26.2036L21.1479 26.6666L20.9103 26.9999L20.6727 27.2962L20.5082 27.4999L20.3254 27.7036L20.1974 27.8518L19.6125 28.4444L19.4663 28.574L19.2104 28.8148L19.0094 28.9814L18.7717 29.1666L18.4793 29.3888L18.132 29.6296L17.8578 29.8148L17.4191 30.074L17.017 30.2962L16.7246 30.4444L16.1945 30.6851L15.5182 30.9444L14.9333 31.1296L14.2753 31.2962L13.6904 31.4073L13.0324 31.4999L12.3012 31.574L12.0088 31.5925H11.1497L10.4734 31.537L9.9616 31.4629L9.41325 31.3518L8.84662 31.2036L7.6037 30.7962L7.07362 30.574L6.54355 30.3148L6.14143 30.0925L5.8307 29.9073L5.48341 29.6851L5.17268 29.4629L4.88023 29.2407L4.66089 29.0555L4.47811 28.9073L4.22221 28.6851L4.07598 28.5555L3.85664 28.3518L3.61903 28.1296L3.30829 27.8148L3.18035 27.6666L3.01584 27.4814L2.77822 27.1666L2.55888 26.8703L2.32127 26.5185L2.10193 26.1666L1.73636 25.5185L1.46219 24.9444L1.22457 24.3888L1.07834 23.9629L0.785889 23.0555V22.9999L0.859002 23.037L1.1149 23.3148L1.24285 23.4999L1.2794 23.537V23.5925L1.35252 23.6296L1.46219 23.7222V23.7592H1.49874L1.7912 24.1296V24.1666H1.82775L1.9557 24.3148L2.19332 24.537L2.26643 24.611V24.6481L2.32127 24.6666V24.7036L2.39438 24.7407L2.46749 24.7962V24.8333L2.54061 24.8518L2.65028 24.9814L2.77822 25.074V25.111L2.85134 25.1481L3.01584 25.2777V25.3148L3.08895 25.3518L3.29002 25.5185V25.5555L3.38141 25.5925L3.60075 25.7592L3.6373 25.7777V25.8148L3.71042 25.8333L3.83837 25.9259V25.9629L3.92976 25.9999L4.11254 26.1296L4.1491 26.1481V26.1851L4.22221 26.2222L4.42327 26.3518L4.66089 26.5185L4.89851 26.6666L5.06301 26.7592L5.31891 26.9073L5.53825 27.037L6.06832 27.2777L6.507 27.4444L6.74462 27.537L6.9274 27.611L7.43919 27.7777L7.62197 27.8333L7.91443 27.8888L8.20688 27.9629L8.48105 27.9999L8.55417 28.0185L8.97457 28.0555L9.5412 28.0925L10.1444 28.111H10.5648L11.1131 28.074L11.5335 28.0555L11.8991 28.037L12.027 27.9999L12.6668 27.9259L12.7765 27.8888L12.941 27.8518L12.9958 27.8148H13.2334L13.3065 27.7407L13.4345 27.7036L13.7269 27.6481L13.8914 27.6296L13.9645 27.6481L14.0377 27.611V27.574L14.3118 27.4814L14.4763 27.4629L14.6591 27.3703L14.8236 27.3333L15.0064 27.2592H15.0795V27.2222L15.244 27.1666L15.3903 27.1481L15.4268 27.074L15.5182 27.0185L15.6279 26.9999L15.6827 26.9814V26.9444L15.8289 26.8518L15.8472 26.8148H15.8838V26.7777L16.03 26.6851L16.0665 26.6481L16.1397 26.6296L16.2311 26.537L16.3042 26.4814H16.3956L16.6149 26.2777L16.7428 26.1296L16.9805 26.037L17.017 25.9999H17.1084L17.145 25.9073L17.2364 25.8518L17.3826 25.8148L17.4557 25.7036H17.5471L17.5654 25.5555L17.7116 25.4444L17.7664 25.4259L17.803 25.3518L17.8761 25.3333L17.8944 25.2036L17.9309 25.1666L18.0223 25.1296L18.0589 24.9999L18.1503 24.9073H18.2051L18.2417 24.8148L18.3696 24.6481L18.461 24.574L18.5158 24.5185H18.5524L18.589 24.3703L18.6986 24.2222L18.7717 24.1666L18.8631 23.8888L18.9362 23.7962L18.9911 23.6666L19.0459 23.611L19.0825 23.4814L19.2104 23.3518L19.247 23.2036H19.2835L19.3384 23.037L19.4298 22.9259L19.4663 22.7592L19.5394 22.7222L19.576 22.6296L19.6857 22.3888L19.7405 22.3333L19.777 22.2036L19.8502 22.1666L19.8136 22.074V21.9259L19.9233 21.7036L19.9598 21.4999L20.0329 21.2036L20.0695 21.1296L20.1061 20.9814L20.1426 20.8888L20.1974 20.6666L20.2523 20.5185L20.2888 20.4259L20.3254 20.037L20.3071 19.9444L20.362 19.7407L20.3802 19.4073L20.4168 19.2407L20.4351 18.9259V17.5555L20.3985 17.074L20.3802 16.9444L20.3985 16.8333L20.362 16.7222V16.4814L20.3437 16.2777L20.3254 16.1666L20.3071 15.9444L20.2523 15.6481L20.1974 15.2407L20.1243 14.8518L20.0878 14.7222L20.0329 14.537L19.9415 14.4259L19.905 14.2962H19.8684L19.8502 14.2222H19.8136L19.7222 14.111L19.576 13.9814L19.5029 13.9444L19.4115 13.8333L19.2104 13.6666L19.0459 13.537V13.4999L18.9545 13.4629L18.7717 13.3148L18.6986 13.2407L18.4062 13.0185L18.3148 12.9259L18.1503 12.7962L18.0406 12.6666L17.8944 12.537L17.7664 12.4073L17.675 12.2962L17.5836 12.2036L17.4557 12.0925V12.0555H17.4191V12.0185L17.3643 11.9999L17.2912 11.9259V11.8888L17.2181 11.8518L17.0901 11.6851V11.6296L17.017 11.5925L16.9256 11.4814L16.7794 11.2962L16.6149 11.1296V11.0925H16.5783V11.037H16.5418L16.487 10.9259L16.4321 10.8703L16.3773 10.7407L16.3224 10.5185L16.2859 10.3888L16.3042 10.2592L16.3407 10.2036L16.3224 10.111L16.3407 10.0925Z" fill="#A8130A"/>
<path d="M24.5661 0.555664L24.6575 0.574183L24.8403 0.796405L24.9499 1.00011L25.0961 1.12974L25.2789 1.31492L25.4617 1.5927L25.6628 1.889L25.8273 2.11122L26.0101 2.2964L26.2111 2.55566L26.3391 2.64826H26.3756L26.5584 2.2964L26.6315 2.20381L26.8143 1.87048L27.0336 1.64826H27.0702L27.0519 1.75937L27.0336 1.7964L27.0154 2.03715V2.2964L27.0885 2.44455L27.1982 2.53715L27.3078 2.55566L27.5272 2.46307L27.7648 2.25937L27.8562 2.18529L28.0207 1.98159L28.4776 1.51863L28.6421 1.31492L28.7701 1.16678L29.026 0.814923L29.227 0.574183L29.3002 0.555664L29.2819 0.666775L29.0991 1.00011L28.8432 1.44455L28.6787 1.75937L28.3131 2.31492L28.1852 2.57418L28.0024 2.85196L27.8562 3.14826L27.8379 3.24085V3.42603L27.8196 3.46307L27.8927 3.50011L28.0207 3.64826L28.0938 3.74085L28.2583 3.85196L28.6604 3.98159L29.1357 4.11122L29.5378 4.18529L29.7023 4.24085V4.31492L29.6657 4.33344H29.2453L28.898 4.35196L28.4776 4.44455L28.3131 4.51863L28.24 4.5927L28.2217 4.74085L28.2949 4.83344V4.87048L28.368 4.90752L28.6056 5.12974L28.8066 5.2964L29.026 5.46307L29.5012 5.72233L29.9947 5.96307L30.3603 6.12974L30.8538 6.37048L30.9818 6.46307L31 6.53715L30.8355 6.50011L30.5614 6.389L30.0861 6.22233L29.2819 5.92603L28.6056 5.74085L28.24 5.66678L28.1486 5.68529L28.1121 5.87048L28.039 5.96307L27.8927 6.25937L27.7648 6.68529L27.6917 7.05566V7.20381L27.7831 7.42603L27.8745 7.61122L28.1121 8.44455L28.2766 8.889L28.4411 9.12974L28.4959 9.25937L28.4411 9.24085L28.2583 9.00011L28.1486 8.85196L28.0024 8.61122L27.8379 8.22233L27.6186 7.74085L27.5089 7.5927L27.2895 7.31492L27.1433 7.11122L26.9605 6.90752L26.8326 6.75937L26.6864 6.64826L26.5036 6.55566L26.467 6.57418L26.8691 6.98159L26.924 7.11122H26.8691L26.6498 6.90752L26.4487 6.75937L26.2477 6.62974L25.8821 6.44455H25.7359L25.8456 6.68529L25.8638 6.83344V7.14826L25.8273 7.57418L25.7907 8.12974L25.7359 8.5927L25.6993 8.72233H25.6445L25.6262 8.64826L25.6628 8.25937V8.05566L25.6262 7.64826V7.25937L25.6445 6.83344L25.5714 6.77789L25.5348 6.70381L25.5531 6.57418L25.6811 6.44455L25.48 6.31492H25.2058L25.0048 6.42603L24.8037 6.55566L24.5112 6.72233L24.2553 6.90752L24.0177 7.11122L23.7801 7.2964L23.6522 7.40752H23.6156L23.707 7.57418L23.8715 7.77789L24.0177 7.98159L24.1822 8.18529L24.4747 8.62974L24.6026 8.83344L24.7671 9.07418L24.9316 9.389L25.0596 9.7964L25.1327 10.0186L25.2424 10.2594V10.3705L25.1327 10.5557L25.1144 10.5186L24.9682 10.5371L24.9499 10.5557H24.7306L24.365 10.5186L24.1091 10.4075L23.9263 10.3334L23.7801 10.2594L23.5791 10.1853L23.3414 10.1112L22.9028 9.98159L22.8114 9.96307H22.2447L22.1351 10.0371L22.0437 10.1297L21.9523 10.1668L21.934 10.2408L21.7878 10.352H21.7512L21.7329 10.4631L21.6233 10.5557L21.5502 10.6668L21.4405 10.7223L21.2577 10.8705H21.2211V10.9075L20.947 11.0371L20.819 11.0927L20.7642 11.1297L20.5814 11.1112L20.4352 11.1668L20.161 11.2038L19.9417 11.2223L19.8503 11.1853L19.7589 11.2223H19.5761L19.5578 11.2038H19.2105L19.1009 11.1853V11.1483H18.8267V11.1112H18.6805L18.5891 11.0186L18.516 11.0001L18.4611 11.0186V10.9816L18.4063 10.9631L18.4246 10.9075H18.3149L18.2966 10.852L18.2418 10.8334V10.7964H18.1687L18.0956 10.7038L18.059 10.6853V10.6483H18.0224V10.6112H17.9493L17.8214 10.426L17.7483 10.3149L17.6934 10.2964L17.6386 10.2408L17.4741 10.1112L17.3827 9.98159L17.2913 9.889V9.85196L17.2182 9.83344L17.1634 9.77789L17.1085 9.68529V9.64826H17.0537L16.9806 9.46307L16.9257 9.389V9.01863L16.9075 9.00011L16.9257 8.74085L16.9806 8.55566L17.0354 8.48159L17.1451 8.16678L17.2182 8.07418L17.273 7.94455L17.3644 7.77789L17.4741 7.64826L17.5655 7.53715L17.6203 7.48159L17.6752 7.389L17.7848 7.2964L17.8397 7.20381L17.9128 7.12974H17.9676L17.9859 7.01863L18.059 6.94455L18.1138 6.81492L18.187 6.72233L18.2418 6.5927L18.2783 6.42603L18.3149 6.37048L18.3515 6.20381L18.3149 6.0927V5.7964L18.2601 5.81492L18.2966 5.72233L18.516 5.42603L18.6256 5.24085L18.7719 5.14826L18.8084 5.12974H19.0826L19.7041 5.20381L20.1245 5.2964L20.49 5.42603L20.7825 5.51863L21.0566 5.5927L21.3308 5.70381L21.6233 5.90752L21.8061 6.03715L22.1533 6.24085L22.3361 6.37048L22.6469 6.53715L22.7931 6.5927L22.8662 6.62974L22.9028 6.53715L23.1404 6.2964L23.3963 6.0927L23.6704 5.889L23.8715 5.75937L24.0543 5.62974L24.3102 5.46307L24.4199 5.33344L24.493 5.14826L24.5478 4.96307L24.4564 4.77789L24.2919 4.62974L24.0908 4.50011L23.7436 4.35196L23.4145 4.27789L22.8296 4.25937L22.3544 4.27789L22.3361 4.22233L22.5006 4.18529L23.1952 4.11122L23.6704 4.07418L24.2188 3.98159L24.4199 3.92603L24.6026 3.87048L24.7854 3.83344L24.8951 3.7964L24.9682 3.64826L24.9316 3.42603L24.8585 3.20381L24.7123 2.90752L24.6392 2.81492L24.3833 2.61122L24.2005 2.44455V2.37048H24.365L24.5844 2.42603L24.8403 2.57418L25.0961 2.66678L25.2424 2.74085L25.2241 2.57418L25.1144 2.24085L24.9682 1.85196L24.8768 1.53715L24.7306 1.24085L24.5112 0.740849V0.648257L24.5661 0.555664Z" fill="#FD2E27"/>
<path d="M9.08442 10.1111L9.34031 10.1666L9.43171 10.1852L9.48654 10.2037L9.57793 10.2592H9.63277L9.65104 10.3518L9.74244 10.3889L9.77899 10.4815H9.81555V10.537H9.85211L9.99833 10.8148L9.98005 10.8518L9.99833 11V11.1666L9.9435 11.3889V11.4444L9.85211 11.5926L9.81555 11.7037L9.74244 11.7592L9.70588 11.8703H9.66932V11.9074L9.61449 11.9444L9.55965 12.074L9.41343 12.2592L9.35859 12.3889H9.32204L9.28548 12.4629L9.17581 12.537L9.08442 12.6481L9.0113 12.7037L8.88336 12.7407L8.75541 12.8148L8.71885 12.8889L8.64574 12.9259L8.5909 12.9815H8.49951L8.46296 12.9629L8.29845 13.0185L8.07911 13.037L7.96944 13.0555H7.91461H7.69527L7.62215 12.9815L7.53076 13L7.47593 12.9629L7.38454 12.9444V12.9074L7.31142 12.8889L7.27487 12.8703V12.8333L7.20175 12.8148L7.1652 12.7407L7.05553 12.7037L7.00069 12.6481V12.6111L6.94586 12.5926L6.89102 12.5L6.81791 12.4074V12.3518L6.76307 12.3703V12.3333H6.72652L6.6534 12.2407L6.59857 12.1481L6.56201 12.0185L6.59857 11.9074L6.63512 11.6481L6.67168 11.574L6.72652 11.537V11.4815L6.74479 11.3889L6.79963 11.3703L6.81791 11.2963L6.9093 11.2037L6.96413 11.1852L6.98241 11.1111L7.0738 11.0926L7.09208 11L7.14692 10.9259L7.18347 10.8703L7.27487 10.7592H7.34798V10.7222H7.38454L7.40281 10.6852L7.47593 10.6666L7.51248 10.6296H7.62215L7.65871 10.5555L7.76838 10.5H7.80494L7.84149 10.4259L7.89633 10.3703L8.006 10.3518L8.02428 10.2963H8.06083L8.20706 10.2407L8.24362 10.2037H8.33501L8.37156 10.1852L8.40812 10.2037V10.1666L8.51779 10.1481H8.73713L8.91991 10.1296L9.08442 10.1111Z" fill="#FC8D8B"/>
<path d="M26.8325 2.66675L26.8508 2.7223L26.9056 2.74082L26.9239 2.83341L26.9604 2.85193V2.92601L26.997 2.94453V3.07416L27.0335 3.2223H27.0701L27.1249 3.33341V3.38897L27.1615 3.40749L27.1432 3.50008H27.1798V3.55564H27.2163L27.2712 3.7223V3.75934H27.3077L27.3808 3.90749L27.4539 3.96304L27.5271 4.12971L27.5636 4.3149L27.6185 4.48156L27.655 4.57416L27.6916 4.59267V4.62971H27.7281L27.7464 4.74082L27.6916 4.85193L27.6002 4.92601L27.5271 4.96304L27.5453 5.09267L27.4905 5.11119L27.4539 5.24082L27.3991 5.29638L27.326 5.3149L27.2712 5.50008L27.2346 5.55564V5.66675L27.1981 5.68527L27.1615 5.83341H27.1249V5.87045H27.0884V5.92601L27.0518 5.94453L27.0335 6.03712H26.997L27.0335 6.05564V6.14823L27.0153 6.11119L26.997 6.14823H26.9604L26.9422 5.96304L26.9056 5.88897L26.8873 5.87045H26.7045L26.5949 5.88897L26.54 5.7223L26.4304 5.68527L26.3938 5.7223L26.2659 5.75934L26.1927 5.79638L26.1196 5.8149L25.9369 5.87045L25.8272 5.83341L25.7906 5.77786L25.6992 5.75934L25.6078 5.68527V5.64823H25.5713L25.553 5.57416L25.5713 5.50008L25.4982 5.48156L25.4616 5.42601L25.4433 5.12971L25.4251 5.05564H25.3885L25.3519 5.00008L25.1509 4.92601H25.0047L24.9133 4.88897L24.9315 4.64823L24.9133 4.55564H24.8767L24.9315 4.38897L25.0412 4.16675L25.096 4.03712L25.1509 4.00008L25.1692 3.94453L25.2606 3.90749L25.2971 3.79638L25.3519 3.74082L25.4068 3.64823L25.4433 3.55564L25.4616 3.48156L25.4982 3.35193L25.5713 3.18527L25.6261 3.12971L25.6444 3.09267L25.7358 3.05564L25.8272 3.07416L25.9551 3.03712L26.0648 3.05564L26.1562 3.09267H26.1927V3.12971L26.3573 3.07416L26.4486 3.05564L26.5035 3.00008H26.5583V2.96304L26.7594 2.94453L26.7959 2.70379L26.8325 2.66675Z" fill="#FD7C7A"/>
<path d="M19.6491 5.22217H19.7954L20.2523 5.33328L20.6362 5.48143L21.0566 5.59254L21.3307 5.70365L21.6232 5.90735L21.806 6.03698L22.1533 6.24069L22.3361 6.37032L22.5371 6.48143V6.57402L22.464 6.61106L22.3726 6.72217L22.2447 6.83328H22.2081L22.1898 6.98143L22.0984 7.09254L22.0802 7.14809L22.0436 7.18513L21.9888 7.20365V7.25921L21.8974 7.27772V7.31476H21.8608V7.3518L21.7877 7.37032L21.7511 7.46291L21.7329 7.49995H21.678L21.6415 7.68513L21.5866 7.74069L21.5318 7.81476H21.4953L21.5135 7.87032H21.477L21.4953 7.94439L21.3673 8.0555L21.148 8.11106H20.9286L20.7641 8.0555L20.6179 7.96291L20.5813 7.87032L20.4717 7.83328L20.3437 7.70365L20.234 7.62958L20.1609 7.53698V7.49995H20.1244L19.9599 7.16661V7.11106H19.9233V7.07402L19.8685 7.0555L19.8136 6.94439L19.6857 6.83328L19.6126 6.72217V6.68513H19.576L19.5029 6.5555L19.4846 6.42587L19.4298 6.29624L19.375 6.01846V5.83328L19.3567 5.64809L19.4115 5.61106L19.4481 5.42587L19.4846 5.37032H19.5212V5.33328L19.6491 5.22217Z" fill="#D8160D"/>
<path d="M16.9987 11.0371L17.2181 11.1112V11.1482H17.2546V11.1853L17.346 11.2223L17.4923 11.3704V11.4075L17.5654 11.4445L17.6019 11.5186H17.6385V11.5556H17.675L17.7847 11.6853L17.8213 11.7038V11.7408L17.8944 11.7779L17.9858 11.8704L18.2051 12.0556L18.4427 12.2408L18.5341 12.3334L18.6438 12.426L18.7535 12.5001L18.9362 12.6853L19.1373 12.8519L19.3566 13.0556L19.5577 13.2223L19.777 13.4075L19.905 13.5001V13.5371L19.9964 13.5741L20.2706 13.7779L20.8555 14.1482L21.0565 14.2593L21.3673 14.4445L21.7145 14.6482L21.8973 14.7593L22.0618 14.8519V14.889L22.1898 14.926L22.336 15.389V15.4445L22.1532 15.4075L22.0253 15.3704L21.8608 15.3149L21.678 15.2408L21.4404 15.1667L21.1662 15.0371L21.0017 14.963L20.8555 14.889L20.7458 14.8149V14.7779L20.6544 14.7408L20.3985 14.5371L20.234 14.426V14.389L20.1609 14.3519L19.9598 14.2038L19.7039 14.0186L19.5577 13.9075L19.3749 13.7408L19.2104 13.6112L18.9545 13.4075L18.7535 13.2223L18.5524 13.0741V13.0371L18.4793 13.0001L18.4245 12.963V12.926L18.3513 12.889L18.2599 12.8149V12.7779L18.1868 12.7408L18.0041 12.5741L17.803 12.3704V12.3334H17.7664V12.2964L17.7116 12.2779L17.6385 12.1853L17.5471 12.0927L17.3826 11.9075L17.2729 11.7408L17.1998 11.5001L17.1267 11.3334L17.017 11.1853L16.9805 11.0741L16.9987 11.0371Z" fill="#7F0D0C"/>
<path d="M9.08442 10.1111L9.34031 10.1666L9.43171 10.1852L9.48654 10.2037L9.57793 10.2592H9.63277L9.65104 10.3518L9.74244 10.3889L9.77899 10.4815H9.81555V10.537H9.85211L9.99833 10.8148L9.98005 10.8518L9.99833 11V11.1666L9.9435 11.3889V11.4444L9.85211 11.5926L9.81555 11.7037L9.74244 11.7592L9.70588 11.8703H9.66932V11.9074L9.61449 11.9444L9.55965 12.074L9.41343 12.2592L9.35859 12.3889H9.32204L9.28548 12.4629L9.17581 12.537L9.08442 12.6481L9.0113 12.7037L8.88336 12.7407L8.75541 12.8148L8.71885 12.8889L8.64574 12.9259L8.5909 12.9815H8.49951L8.46296 12.9629L8.29845 13.0185L8.07911 13.037L7.96944 13.0555H7.91461H7.69527L7.62215 12.9815L7.53076 13L7.47593 12.9629L7.38454 12.9444V12.9074L7.31142 12.8889L7.27487 12.8703V12.8333L7.20175 12.8148L7.1652 12.7407L7.05553 12.7037L7.00069 12.6481V12.6111L6.94586 12.5926L6.89102 12.5L6.81791 12.4074V12.3518L6.76307 12.3703V12.3333H6.72652L6.6534 12.2407L6.59857 12.1481L6.56201 12.0185L6.59857 11.9074L6.63512 11.6481L6.67168 11.574L6.72652 11.537V11.4815L6.74479 11.3889L6.79963 11.3703L6.81791 11.2963L6.9093 11.2037L6.96413 11.1852L6.98241 11.1111L7.0738 11.0926L7.09208 11L7.14692 10.9259L7.18347 10.8703L7.27487 10.7592H7.34798V10.7222H7.38454L7.40281 10.6852L7.47593 10.6666L7.51248 10.6296H7.62215L7.65871 10.5555L7.76838 10.5H7.80494L7.84149 10.4259L7.89633 10.3703L8.006 10.3518L8.02428 10.2963H8.06083L8.20706 10.2407L8.24362 10.2037H8.33501L8.37156 10.1852L8.40812 10.2037V10.1666L8.51779 10.1481H8.73713L8.91991 10.1296L9.08442 10.1111ZM8.79196 10.3703L8.70057 10.4259H8.5909L8.49951 10.4629V10.5L8.1705 10.574V10.6111L8.07911 10.6481L7.87805 10.6852L7.82321 10.7037V10.7407L7.71354 10.7778L7.56732 10.8889L7.51248 10.9444L7.45765 10.9629L7.42109 11.0555H7.38454L7.22003 11.2592L7.09208 11.4815L7.05553 11.7037V11.9259L7.14692 12.0926L7.25659 12.2222L7.40281 12.2963L7.53076 12.3703L7.71354 12.4074L7.87805 12.4444L8.09739 12.4074L8.46296 12.3889L8.5909 12.3518L8.77369 12.2963L9.04786 12.1666L9.12097 12.0926V12.0555L9.21237 12.0185L9.34031 11.8333L9.48654 11.7037V11.6666L9.55965 11.6481V11.6111L9.63277 11.5926L9.6876 11.5L9.76071 11.4074L9.81555 11.2407L9.87038 11.1111V10.8518L9.72416 10.6481L9.55965 10.574L9.43171 10.5555L9.24892 10.4815L9.06614 10.3889H8.90163L8.79196 10.3703Z" fill="#FE6966"/>
<path d="M8.17042 8.79639H8.26181L8.22525 8.83342L8.11558 8.88898H7.98763V8.92602L7.95108 8.94453L7.9328 9.00009L7.84141 9.03713V9.07416L7.69518 9.16676L7.47584 9.24083L7.29306 9.37046L7.11027 9.42602L7.01888 9.51861L6.67159 9.72231L6.47053 9.81491L6.36086 9.88898L6.1598 10.0186L6.06841 10.0927H6.03185V10.1297L5.88563 10.2593L5.83079 10.3149L5.66629 10.4075L5.5749 10.4631L5.42867 10.5371L5.24589 10.5742V10.6297L5.11794 10.6853L5.02655 10.7779H4.98999V10.8149L4.8986 10.8705H4.86204L4.84376 11.0001L4.71582 11.1112H4.67926L4.66098 11.2408L4.51475 11.3519L4.4782 11.4631L4.42336 11.5186H4.38681L4.36853 11.5927H4.33197L4.29541 11.7038L4.18575 11.7593H4.14919L4.11263 11.8705H4.07608L4.0578 11.926L3.98468 11.9445L3.91157 12.0927L3.82018 12.1297L3.78362 12.2038H3.74707V12.2408H3.69223L3.6374 12.3519H3.60084V12.389H3.56428L3.52773 12.4631L3.49117 12.5001H3.43633V12.5371L3.29011 12.6668L3.19872 12.8149L2.99766 12.9631L2.88799 13.1482H2.77832V13.2408L2.68692 13.3334L2.61381 13.389H2.57725L2.55898 13.4816L2.48586 13.5186H2.41275L2.35791 13.6853L2.26652 13.8149H2.22997V13.8519L2.15685 13.926L2.02891 14.0927L1.97407 14.1668L1.91924 14.2779L1.84612 14.4075H1.80957L1.77301 14.5186L1.71817 14.6297L1.68162 14.7408L1.57195 14.8334L1.51711 14.9816L1.444 15.0927L1.33433 15.4445L1.27949 15.5556H1.24294V15.5927L1.15155 15.6668H1.11499L1.13327 15.5371L1.26122 15.1853L1.444 14.7593L1.59023 14.5001L1.71817 14.2408L1.90096 13.9075L2.04718 13.6668L2.2848 13.2779L2.41275 13.0927L2.63209 12.7964L2.74176 12.6297L2.88799 12.426L2.94282 12.3519H2.97938L2.99766 12.2964L3.08905 12.2038L3.29011 11.9816L3.41806 11.8334L3.69223 11.5742L3.8019 11.4631H3.83846L3.87501 11.389H3.91157L3.92985 11.3334L4.18575 11.1297L4.40508 10.926L4.6427 10.7223L4.93516 10.5186L5.1545 10.3334L5.42867 10.1482L5.83079 9.88898L6.14152 9.68528L6.61676 9.42602L6.87266 9.29639L7.20167 9.14824L7.56723 9.00009L8.17042 8.79639Z" fill="#D9180F"/>
<path d="M23.5789 7.46289L23.6521 7.48141L23.7252 7.59252L23.8714 7.77771L24.0176 7.98141L24.1821 8.18511L24.3649 8.46289L24.3466 8.49993L24.3101 8.48141V8.51845L24.1821 8.48141V8.51845L23.9994 8.49993V8.46289H23.9628L23.9811 8.74067L23.9994 8.90734L24.0725 9.03696V9.12956L24.0176 9.25919L23.908 9.33326L23.7617 9.44437L23.6155 9.48141L23.3231 9.46289L23.0672 9.3703L22.8113 9.16659V9.12956L22.7016 9.09252L22.4274 8.90734V8.8703L22.3177 8.83326L22.2264 8.75919V8.72215L22.1532 8.68511L22.0619 8.59252L22.007 8.51845V8.42585L21.9705 8.40734L22.0253 8.3703L22.0619 8.38882L22.1715 8.33326H22.2264V8.29622L22.336 8.22215H22.3909V8.18511H22.464V8.14808H22.5005V8.11104L22.6285 8.05548L22.7381 7.96289L22.8295 7.85178L22.9758 7.74067H23.0489V7.70363H23.0854L23.1037 7.64808L23.3231 7.59252L23.4327 7.53696L23.5607 7.48141L23.5789 7.46289Z" fill="#D8160D"/>
<path d="M26.8325 2.66675L26.8508 2.7223L26.9056 2.74082L26.9239 2.83341L26.9604 2.85193V2.92601L26.997 2.94453V3.07416L27.0335 3.2223H27.0701L27.1249 3.33341V3.38897L27.1615 3.40749L27.1432 3.50008H27.1798V3.55564H27.2163L27.2712 3.7223V3.75934H27.3077L27.3808 3.90749L27.4539 3.96304L27.5271 4.12971L27.5636 4.3149L27.6185 4.48156L27.655 4.57416L27.6916 4.59267V4.62971H27.7281L27.7464 4.74082L27.6916 4.85193L27.6002 4.92601L27.5271 4.96304L27.5453 5.09267L27.4905 5.11119L27.4539 5.24082L27.3991 5.29638L27.326 5.3149L27.2712 5.50008L27.2346 5.55564V5.66675L27.1981 5.68527L27.1615 5.83341H27.1249V5.87045H27.0884V5.92601L27.0518 5.94453L27.0335 6.03712H26.997L27.0335 6.05564V6.14823L27.0153 6.11119L26.997 6.14823H26.9604L26.9422 5.96304L26.9056 5.88897L26.8873 5.87045H26.7045L26.5949 5.88897L26.54 5.7223L26.4304 5.68527L26.3938 5.7223L26.2659 5.75934L26.1927 5.79638L26.1196 5.8149L25.9369 5.87045L25.8272 5.83341L25.7906 5.77786L25.6992 5.75934L25.6078 5.68527V5.64823H25.5713L25.553 5.57416L25.5713 5.50008L25.4982 5.48156L25.4616 5.42601L25.4433 5.12971L25.4251 5.05564H25.3885L25.3519 5.00008L25.1509 4.92601H25.0047L24.9133 4.88897L24.9315 4.64823L24.9133 4.55564H24.8767L24.9315 4.38897L25.0412 4.16675L25.096 4.03712L25.1509 4.00008L25.1692 3.94453L25.2606 3.90749L25.2971 3.79638L25.3519 3.74082L25.4068 3.64823L25.4433 3.55564L25.4616 3.48156L25.4982 3.35193L25.5713 3.18527L25.6261 3.12971L25.6444 3.09267L25.7358 3.05564L25.8272 3.07416L25.9551 3.03712L26.0648 3.05564L26.1562 3.09267H26.1927V3.12971L26.3573 3.07416L26.4486 3.05564L26.5035 3.00008H26.5583V2.96304L26.7594 2.94453L26.7959 2.70379L26.8325 2.66675ZM26.8142 3.18527V3.24082L26.7411 3.25934V3.29638L26.54 3.24082L26.4486 3.29638H26.3207L26.2659 3.3149H26.0648L26.01 3.37045V3.40749H25.9369L25.9003 3.35193H25.8089V3.38897L25.6627 3.37045L25.6261 3.42601V3.5186H25.5896L25.5713 3.66675L25.4982 3.70379L25.4251 3.87045L25.3702 3.90749L25.3337 4.0186L25.3154 4.20379L25.2606 4.33341L25.2423 4.48156V4.79638L25.3702 4.94453L25.4433 5.00008H25.4799L25.5164 5.18527L25.553 5.20379L25.5896 5.35193L25.6627 5.40749H25.7723L25.7906 5.48156L25.8089 5.59267L25.9186 5.64823L26.01 5.62971L26.0648 5.61119L26.1562 5.59267L26.211 5.57416L26.2841 5.59267L26.4486 5.57416L26.5218 5.55564L26.5949 5.44453L26.6863 5.37045L26.7411 5.27786L26.8508 5.24082V5.20379H26.997L27.0153 5.24082H27.0701L27.1798 5.11119L27.1981 5.0186L27.1798 4.98156L27.2712 4.94453L27.326 4.83341L27.3991 4.75934L27.4539 4.61119V4.40749L27.4357 4.3149V4.16675L27.3626 4.09267L27.3077 3.98156L27.2346 3.79638L27.1615 3.62971L27.0884 3.53712L26.997 3.25934L26.9056 3.18527H26.8142Z" fill="#FE6966"/>
<path d="M8.71875 10.2407H9.06604L9.24882 10.2963L9.32193 10.3148L9.48644 10.3704V10.4074L9.59611 10.4444L9.61439 10.5L9.79717 10.5741L9.83373 10.6852L9.90684 10.7222L9.96167 11L9.90684 11.2037L9.88856 11.3518L9.852 11.4444L9.79717 11.4815L9.77889 11.5926L9.59611 11.7592H9.55955L9.523 11.8704L9.41333 12H9.37677L9.35849 12.0741L9.24882 12.1666L9.19399 12.2778L9.10259 12.2963V12.3333L8.81014 12.4815L8.62736 12.537L8.49941 12.6111H8.46285L8.44458 12.6481L8.38974 12.6666H8.1704L7.95106 12.7222L7.82311 12.7037H7.69517L7.45755 12.6296L7.40271 12.5741L7.29304 12.537L7.23821 12.4629L7.12854 12.4259L6.96403 12.2963L6.87264 12.1666L6.81781 12.037L6.78125 11.8518L6.85436 11.5555L6.87264 11.4444L6.94575 11.3518L6.98231 11.3148L7.01887 11.2407L7.11026 11.2037L7.14682 11.1296L7.23821 11.0185V10.9815H7.27476L7.31132 10.8518L7.38443 10.8333L7.4941 10.7407L7.5855 10.7222L7.64033 10.6666L7.73172 10.6296L7.80483 10.6111L7.84139 10.537L8.06073 10.4629L8.1704 10.3889L8.28007 10.3704L8.29835 10.3333H8.37146V10.2963L8.46285 10.2778H8.49941L8.64564 10.2592L8.71875 10.2407ZM8.79186 10.3704L8.70047 10.4259H8.5908L8.49941 10.4629V10.5L8.1704 10.5741V10.6111L8.07901 10.6481L7.87795 10.6852L7.82311 10.7037V10.7407L7.71344 10.7778L7.56722 10.8889L7.51238 10.9444L7.45755 10.9629L7.42099 11.0555H7.38443L7.21993 11.2592L7.09198 11.4815L7.05542 11.7037V11.9259L7.14682 12.0926L7.25649 12.2222L7.40271 12.2963L7.53066 12.3704L7.71344 12.4074L7.87795 12.4444L8.09729 12.4074L8.46285 12.3889L8.5908 12.3518L8.77358 12.2963L9.04776 12.1666L9.12087 12.0926V12.0555L9.21226 12.0185L9.34021 11.8333L9.48644 11.7037V11.6666L9.55955 11.6481V11.6111L9.63266 11.5926L9.6875 11.5L9.76061 11.4074L9.81545 11.2407L9.87028 11.1111V10.8518L9.72406 10.6481L9.55955 10.5741L9.4316 10.5555L9.24882 10.4815L9.06604 10.3889H8.90153L8.79186 10.3704Z" fill="#FE7B79"/>
<path d="M20.5448 6.29639L20.7824 6.33342L20.9835 6.38898L21.1114 6.42602L21.2394 6.51861L21.4222 6.57416L21.6232 6.72231L21.7695 6.85194L21.8243 6.9075L21.8426 7.00009L21.7695 7.18528H21.7329L21.6963 7.25935L21.605 7.38898H21.5684V7.42602H21.5318L21.4953 7.50009L21.3856 7.57416L21.2942 7.59268L21.1663 7.55565L21.0018 7.44453L20.8555 7.37046L20.7642 7.29639L20.691 7.20379L20.5631 6.98157L20.49 6.85194L20.3438 6.48157L20.362 6.38898L20.4169 6.33342L20.5448 6.29639Z" fill="#A8130A"/>
<path d="M23.0306 7.88892L23.1037 7.92595L23.2499 8.11114L23.3048 8.20373L23.3962 8.29632L23.5424 8.50003L23.6155 8.62966L23.6338 8.72225L23.6704 8.85188L23.6886 8.98151L23.6338 9.0741L23.5607 9.12966H23.4145L23.2134 9.05558L22.8844 8.90743L22.6468 8.75929L22.5005 8.68521L22.3909 8.55558L22.464 8.44447L22.5371 8.3704H22.5737L22.6102 8.29632L22.665 8.2778V8.24077L22.793 8.12966L22.8661 8.01855L23.0306 7.88892Z" fill="#A8130A"/>
<path d="M26.6499 3.8147L26.7047 3.87025L26.7595 3.96285L26.8509 4.0184L26.8875 4.09248L26.9606 4.16655L26.9789 4.27766L26.924 4.35173L26.8509 4.33322L26.7412 4.27766L26.6133 4.25914L26.5767 4.37025L26.5585 4.40729L26.723 4.46285L26.7961 4.53692L26.924 4.57396L26.9423 4.64803L26.8875 4.75914L26.7595 4.8147H26.6133L26.4122 4.79618L26.3208 4.77766L26.266 4.83322L26.1563 4.75914H26.0101L25.9918 4.77766H25.8822L25.8456 4.74062V4.62951H25.7725V4.74062L25.7908 4.75914L25.7725 4.88877L25.6811 4.94433L25.5897 4.87025L25.5714 4.83322V4.68507L25.5166 4.46285V4.35173L25.5897 4.24062L25.7725 4.11099H25.8273L25.8822 3.87025H26.0832V4.11099H26.1198L26.1381 4.20359L26.065 4.29618L25.937 4.3147V4.57396H26.0101L26.0284 4.5184L26.1929 4.44433L26.2843 4.42581L26.266 4.24062L26.4671 4.20359L26.5402 4.24062L26.5036 4.18507L26.4305 4.14803V3.92581L26.4671 3.85173L26.6499 3.8147Z" fill="#FC8D8B"/>
<path d="M24.3834 10.7964H24.5479L24.8403 10.8705L24.8952 10.889L24.8769 10.9816L24.7306 11.1853L24.5661 11.389L24.4199 11.5927L24.1823 11.926L24.1275 12.0186H23.9995L23.9081 11.926L23.835 11.8149L23.7985 11.7779L23.7436 11.5556L23.7253 11.4445L23.7985 11.2964L23.835 11.1668V11.0742L23.7802 11.0556L23.7985 10.9631H23.9264L24.0178 10.9075L24.2189 10.8334L24.3834 10.7964Z" fill="#A9130B"/>
<path d="M22.9758 8.03711H23.0672L23.1951 8.20378L23.2865 8.31489V8.35192L23.3413 8.37044L23.4327 8.57415L23.4693 8.77785L23.4327 8.85192L23.3048 8.87044L22.8295 8.70378L22.6833 8.59266L22.665 8.50007L22.6833 8.40748L22.7747 8.25933H22.8113L22.8478 8.18526L22.9392 8.05563L22.9758 8.03711Z" fill="#7F0D0C"/>
<path d="M25.6992 6.42603L25.7357 6.44454L25.8454 6.68528L25.8637 6.83343V7.14825L25.8271 7.57417L25.7906 8.12973L25.7357 8.59269L25.6992 8.72232H25.6443L25.6261 8.64825L25.6626 8.25936V8.05566L25.6261 7.64825V7.25936L25.6443 6.83343L25.5712 6.77788L25.5347 6.7038L25.5529 6.57417L25.6443 6.48158L25.6992 6.42603Z" fill="#FD332C"/>
<path d="M19.0643 6.14819L19.1192 6.18523V6.33338H19.174L19.1923 6.46301L19.1557 6.62967H19.1923V6.66671H19.1374L19.1557 6.7593L19.0826 6.79634L19.0278 6.68523L18.9912 6.48153V6.24079L19.0643 6.14819Z" fill="#FF6A67"/>
<path d="M25.3155 6.77783L25.3886 6.79635L25.4252 6.98154V7.09265L25.5166 7.27783L25.4983 7.33339L25.3338 7.12968L25.2424 7.03709L25.2241 6.92598L25.3155 6.77783Z" fill="#FD3D37"/>
<path d="M24.621 0.0371094H24.6575L24.6941 0.259332L24.7489 0.518591V0.611183L24.6758 0.537109L24.5844 0.314887L24.5479 0.203776L24.5661 0.0741464L24.621 0.0371094Z" fill="#FD3A34"/>
<path d="M28.4959 6.37036L28.5325 6.38888L28.5142 6.55555L28.3862 7.03703L28.2766 7.29629L28.2583 7.24073L28.3314 6.96295L28.4411 6.46295L28.4959 6.37036Z" fill="#FD807D"/>
<path d="M25.6992 6.42603L25.7357 6.44454L25.7723 6.55566H25.7357L25.6626 6.83343L25.5712 6.77788L25.5347 6.7038L25.5529 6.57417L25.6443 6.48158L25.6992 6.42603Z" fill="#FC3832"/>
<path d="M0 19.3518L0.0731132 19.4444V19.5555L0.0548349 19.6296L0.0731132 19.6666L0.0548349 19.7222H0.0913915L0.0731132 19.8888L0.0548349 19.9814L0.0731132 20.0925L0 20.1111V19.3518Z" fill="#FC8D8B"/>
<path d="M25.6992 6.5L25.7723 6.51852L25.754 6.55556L25.7175 6.61111L25.6626 6.83333L25.5713 6.77778L25.553 6.7037L25.6261 6.72222L25.6444 6.59259L25.6992 6.5Z" fill="#FD7F7D"/>
<path d="M28.2217 4.77783L28.2948 4.83339V4.87042L28.3314 4.88894L28.2217 4.92598L28.0938 4.87042L28.112 4.79635L28.2217 4.83339V4.77783Z" fill="#FE6C6A"/>
<path d="M28.496 6.37036L28.5325 6.38888L28.5142 6.55555L28.4777 6.68518L28.4229 6.6111L28.4594 6.42592L28.496 6.37036Z" fill="#FD7876"/>
<path d="M25.3155 6.77783L25.3886 6.79635V6.83339H25.3338V6.92598H25.279L25.2972 7.01857L25.2607 7.05561L25.2241 7.00005L25.2424 6.88894L25.3155 6.77783Z" fill="#FD7C7A"/>
<path d="M26.3574 3.74072L26.4305 3.75924L26.467 3.85183L26.3939 3.87035L26.3391 3.83332L26.3208 3.75924L26.3574 3.74072Z" fill="#FC8D8B"/>
<path d="M24.4746 2.51855H24.5294V2.55559L24.5842 2.57411L24.5477 2.6667L24.4746 2.68522L24.4563 2.64818V2.53707L24.4746 2.51855Z" fill="#FE6B68"/>
<path d="M28.4411 6.59253L28.4593 6.64808L28.4411 6.81475L28.3862 6.83327L28.4045 6.62957L28.4411 6.59253Z" fill="#FE706D"/>
<path d="M8.17033 8.79639H8.26172L8.22517 8.83342L8.1155 8.88898H7.98755L8.00583 8.85194L8.17033 8.79639Z" fill="#E1221A"/>
<path d="M25.6626 6.6853H25.6809L25.6626 6.83345L25.5713 6.7779L25.553 6.70382L25.6626 6.72234V6.6853Z" fill="#FD7371"/>
<path d="M28.3497 7L28.368 7.07407L28.2766 7.2963L28.2583 7.24074L28.3131 7.03704H28.3497V7Z" fill="#FD5753"/>
<path d="M26.9058 7.16675H26.9423L26.9972 7.25934L26.9789 7.29638L26.9058 7.20379V7.16675Z" fill="#FD817F"/>
<path d="M27.1799 1.46289L27.2164 1.48141L27.1799 1.53696L27.1433 1.51845L27.1799 1.46289Z" fill="#FC8886"/>
<path d="M0.0183105 20.1296L0.0548672 20.1667H0.0183105V20.1296Z" fill="#FC8D8B"/>
</g>
<defs>
<clipPath id="clip0_174_42">
<rect width="31" height="32" fill="white"/>
</clipPath>
</defs>
</svg>
