<svg width="37" height="32" viewBox="0 0 37 32" fill="none" xmlns="http://www.w3.org/2000/svg">
<g filter="url(#filter0_d_1_864)">
<mask id="path-1-inside-1_1_864" fill="white">
<path d="M10.8396 16.769H5.36793C5.15025 16.769 4.94149 16.6883 4.78757 16.5447C4.63364 16.4011 4.54717 16.2063 4.54717 16.0032C4.54717 15.8001 4.63364 15.6053 4.78757 15.4616C4.94149 15.318 5.15025 15.2373 5.36793 15.2373H10.4019L12.3443 12.5187C12.4192 12.4134 12.5208 12.327 12.6402 12.2672C12.7595 12.2075 12.8929 12.1762 13.0283 12.1762C13.1637 12.1762 13.2971 12.2075 13.4164 12.2672C13.5358 12.327 13.6374 12.4134 13.7123 12.5187L17.4057 17.688L18.9104 15.582C18.985 15.4763 19.0865 15.3895 19.2059 15.3293C19.3252 15.2692 19.4587 15.2376 19.5943 15.2373H22.8774C23.095 15.2373 23.3038 15.318 23.4577 15.4616C23.6116 15.6053 23.6981 15.8001 23.6981 16.0032C23.6981 16.2063 23.6116 16.4011 23.4577 16.5447C23.3038 16.6883 23.095 16.769 22.8774 16.769H20.0321L18.0896 19.4876C18.0148 19.5929 17.9131 19.6793 17.7938 19.7391C17.6744 19.7988 17.5411 19.8301 17.4057 19.8301C17.2702 19.8301 17.1369 19.7988 17.0175 19.7391C16.8982 19.6793 16.7966 19.5929 16.7217 19.4876L13.0283 14.3184L11.5236 16.4244C11.449 16.5301 11.3475 16.6169 11.2281 16.677C11.1087 16.7371 10.9753 16.7687 10.8396 16.769ZM25.066 4.00541C23.7711 4.00481 22.4958 4.29994 21.3512 4.86505C20.2067 5.43015 19.2278 6.24805 18.5 7.24736C17.5469 5.93626 16.1682 4.94504 14.5665 4.41938C12.9648 3.89373 11.2246 3.86137 9.6017 4.32707C7.97882 4.79277 6.55887 5.73196 5.55055 7.00659C4.54224 8.28122 3.99876 9.82404 4 11.4083C4 11.587 4 11.7784 4.01368 11.9571C4.02778 12.1614 4.12756 12.3523 4.29142 12.4885C4.45528 12.6247 4.67002 12.6951 4.88915 12.6846C4.99641 12.6798 5.10155 12.655 5.19841 12.6118C5.29527 12.5685 5.38191 12.5077 5.45325 12.4328C5.52459 12.3579 5.5792 12.2705 5.61388 12.1756C5.64855 12.0808 5.6626 11.9805 5.65519 11.8805C5.64151 11.7146 5.64151 11.5614 5.64151 11.4083C5.63833 10.0488 6.14087 8.7304 7.06337 7.67811C7.98588 6.62581 9.27117 5.90484 10.6999 5.63822C12.1286 5.3716 13.6122 5.57587 14.8975 6.21616C16.1829 6.85644 17.1902 7.89307 17.7476 9.14913C17.8065 9.29064 17.9099 9.41225 18.0441 9.49799C18.1784 9.58374 18.3373 9.62962 18.5 9.62962C18.6627 9.62962 18.8216 9.58374 18.9559 9.49799C19.0901 9.41225 19.1935 9.29064 19.2524 9.14913C19.8098 7.89307 20.8171 6.85644 22.1025 6.21616C23.3878 5.57587 24.8714 5.3716 26.3001 5.63822C27.7288 5.90484 29.0141 6.62581 29.9366 7.67811C30.8591 8.7304 31.3617 10.0488 31.3585 11.4083C31.3585 18.7218 20.716 25.1036 18.5 26.3416C17.1868 25.6014 12.8915 23.0614 9.63585 19.5897C9.56516 19.5131 9.4789 19.4503 9.38205 19.4049C9.2852 19.3595 9.17968 19.3325 9.07158 19.3254C8.96348 19.3183 8.85494 19.3312 8.75223 19.3634C8.64951 19.3956 8.55465 19.4465 8.47311 19.5131C8.3104 19.6482 8.21073 19.8373 8.1954 20.04C8.18006 20.2427 8.25027 20.443 8.39104 20.598C12.4675 24.9377 17.8708 27.7839 18.1033 27.8988C18.2234 27.9651 18.3604 28 18.5 28C18.6396 28 18.7766 27.9651 18.8967 27.8988C21.391 26.5382 23.7328 24.9476 25.8868 23.1508C30.6061 19.1813 33 15.2373 33 11.4083C33 9.44491 32.1641 7.56197 30.6762 6.17366C29.1883 4.78535 27.1703 4.00541 25.066 4.00541Z"/>
</mask>
<path d="M10.4019 15.2373V18.2373H11.9455L12.8428 16.9814L10.4019 15.2373ZM12.3443 12.5187L14.7853 14.2628L14.7894 14.257L12.3443 12.5187ZM13.7123 12.5187L11.2672 14.257L11.2713 14.2628L13.7123 12.5187ZM17.4057 17.688L14.9647 19.432L17.4057 22.8483L19.8466 19.432L17.4057 17.688ZM18.9104 15.582L21.3513 17.326L21.3564 17.319L21.3614 17.3119L18.9104 15.582ZM19.5943 15.2373V12.2373L19.5892 12.2374L19.5943 15.2373ZM22.8774 15.2373V12.2373V15.2373ZM20.0321 16.769V13.769H18.4885L17.5911 15.0249L20.0321 16.769ZM18.0896 19.4876L15.6487 17.7436L15.6445 17.7494L18.0896 19.4876ZM16.7217 19.4876L19.1668 17.7494L19.1627 17.7436L16.7217 19.4876ZM13.0283 14.3184L15.4693 12.5743L13.0283 9.15797L10.5873 12.5743L13.0283 14.3184ZM11.5236 16.4244L9.08263 14.6803L9.07758 14.6874L9.07258 14.6945L11.5236 16.4244ZM18.5 7.24736L16.0734 9.01135L18.4977 12.3462L20.925 9.01354L18.5 7.24736ZM4 11.4083H7L7 11.4059L4 11.4083ZM4.01368 11.9571L7.00656 11.7506L7.00579 11.7393L7.00493 11.7281L4.01368 11.9571ZM4.88915 12.6846L4.75347 9.68769L4.74568 9.68807L4.88915 12.6846ZM5.65519 11.8805L8.64699 11.6588L8.64607 11.6464L8.64505 11.634L5.65519 11.8805ZM5.64151 11.4083H8.64152L8.6415 11.4012L5.64151 11.4083ZM17.7476 9.14913L20.5174 7.99659L20.5039 7.96421L20.4897 7.93216L17.7476 9.14913ZM18.5 9.62962V6.62962V9.62962ZM19.2524 9.14913L16.5103 7.93216L16.4961 7.96421L16.4826 7.99659L19.2524 9.14913ZM31.3585 11.4083L28.3585 11.4012V11.4083H31.3585ZM18.5 26.3416L17.0268 28.955L18.4934 29.7818L19.9632 28.9606L18.5 26.3416ZM9.63585 19.5897L7.43078 21.6239L7.43912 21.6329L7.44754 21.6419L9.63585 19.5897ZM8.47311 19.5131L6.57508 17.1899L6.56597 17.1973L6.55692 17.2048L8.47311 19.5131ZM8.39104 20.598L6.16978 22.6145L6.18696 22.6334L6.20445 22.652L8.39104 20.598ZM18.1033 27.8988L19.5519 25.2717L19.4926 25.239L19.432 25.2091L18.1033 27.8988ZM18.8967 27.8988L17.4601 25.2651L17.4481 25.2717L18.8967 27.8988ZM25.8868 23.1508L27.8085 25.4545L27.8179 25.4466L25.8868 23.1508ZM10.8396 13.769H5.36793V19.769H10.8396V13.769ZM5.36793 13.769C5.8814 13.769 6.4121 13.9574 6.8342 14.3512L2.74093 18.7381C3.47087 19.4192 4.41909 19.769 5.36793 19.769V13.769ZM6.8342 14.3512C7.26332 14.7516 7.54717 15.3409 7.54717 16.0032H1.54717C1.54717 17.0716 2.00396 18.0505 2.74093 18.7381L6.8342 14.3512ZM7.54717 16.0032C7.54717 16.6654 7.26332 17.2547 6.8342 17.6551L2.74093 13.2682C2.00397 13.9558 1.54717 14.9347 1.54717 16.0032H7.54717ZM6.8342 17.6551C6.41211 18.049 5.88141 18.2373 5.36793 18.2373V12.2373C4.41908 12.2373 3.47087 12.5871 2.74093 13.2682L6.8342 17.6551ZM5.36793 18.2373H10.4019V12.2373H5.36793V18.2373ZM12.8428 16.9814L14.7853 14.2628L9.90338 10.7747L7.96093 13.4933L12.8428 16.9814ZM14.7894 14.257C14.5703 14.5653 14.2881 14.7972 13.9834 14.9497L11.2969 9.58477C10.7536 9.85685 10.2682 10.2615 9.89925 10.7805L14.7894 14.257ZM13.9834 14.9497C13.6794 15.102 13.352 15.1762 13.0283 15.1762V9.17621C12.4337 9.17621 11.8396 9.31302 11.2969 9.58477L13.9834 14.9497ZM13.0283 15.1762C12.7046 15.1762 12.3772 15.102 12.0732 14.9497L14.7597 9.58477C14.217 9.31302 13.6229 9.17621 13.0283 9.17621V15.1762ZM12.0732 14.9497C11.7685 14.7972 11.4864 14.5653 11.2672 14.257L16.1574 10.7805C15.7884 10.2615 15.303 9.85685 14.7597 9.58477L12.0732 14.9497ZM11.2713 14.2628L14.9647 19.432L19.8466 15.9439L16.1532 10.7747L11.2713 14.2628ZM19.8466 19.432L21.3513 17.326L16.4694 13.8379L14.9647 15.9439L19.8466 19.432ZM21.3614 17.3119C21.1428 17.6216 20.8607 17.8548 20.5558 18.0085L17.856 12.6502C17.3123 12.9241 16.8272 13.3309 16.4594 13.8521L21.3614 17.3119ZM20.5558 18.0085C20.2515 18.1617 19.9237 18.2368 19.5995 18.2373L19.5892 12.2374C18.9937 12.2384 18.3989 12.3766 17.856 12.6502L20.5558 18.0085ZM19.5943 18.2373H22.8774V12.2373H19.5943V18.2373ZM22.8774 18.2373C22.3639 18.2373 21.8332 18.049 21.4111 17.6551L25.5044 13.2682C24.7744 12.5871 23.8262 12.2373 22.8774 12.2373V18.2373ZM21.4111 17.6551C20.982 17.2547 20.6981 16.6654 20.6981 16.0032H26.6981C26.6981 14.9347 26.2413 13.9558 25.5044 13.2682L21.4111 17.6551ZM20.6981 16.0032C20.6981 15.3409 20.982 14.7516 21.4111 14.3512L25.5044 18.7381C26.2413 18.0505 26.6981 17.0716 26.6981 16.0032H20.6981ZM21.4111 14.3512C21.8332 13.9574 22.3639 13.769 22.8774 13.769V19.769C23.8262 19.769 24.7744 19.4192 25.5044 18.7381L21.4111 14.3512ZM22.8774 13.769H20.0321V19.769H22.8774V13.769ZM17.5911 15.0249L15.6487 17.7436L20.5306 21.2317L22.473 18.513L17.5911 15.0249ZM15.6445 17.7494C15.8637 17.4411 16.1459 17.2092 16.4505 17.0566L19.137 22.4215C19.6804 22.1495 20.1658 21.7448 20.5347 21.2259L15.6445 17.7494ZM16.4505 17.0566C16.7545 16.9044 17.0819 16.8301 17.4057 16.8301V22.8301C18.0003 22.8301 18.5943 22.6933 19.137 22.4215L16.4505 17.0566ZM17.4057 16.8301C17.7294 16.8301 18.0568 16.9044 18.3608 17.0566L15.6743 22.4215C16.217 22.6933 16.8111 22.8301 17.4057 22.8301V16.8301ZM18.3608 17.0566C18.6655 17.2092 18.9476 17.4411 19.1668 17.7494L14.2766 21.2259C14.6455 21.7448 15.1309 22.1495 15.6743 22.4215L18.3608 17.0566ZM19.1627 17.7436L15.4693 12.5743L10.5873 16.0624L14.2807 21.2317L19.1627 17.7436ZM10.5873 12.5743L9.08263 14.6803L13.9645 18.1684L15.4693 16.0624L10.5873 12.5743ZM9.07258 14.6945C9.2912 14.3847 9.5733 14.1515 9.87821 13.9979L12.578 19.3561C13.1216 19.0822 13.6068 18.6754 13.9746 18.1543L9.07258 14.6945ZM9.87821 13.9979C10.1824 13.8446 10.5103 13.7695 10.8345 13.769L10.8448 19.769C11.4403 19.768 12.035 19.6297 12.578 19.3561L9.87821 13.9979ZM25.0674 1.00541C23.3183 1.0046 21.5872 1.40278 20.0231 2.17507L22.6794 7.55503C23.4043 7.19711 24.224 7.00502 25.0646 7.00541L25.0674 1.00541ZM20.0231 2.17507C18.4583 2.94768 17.0979 4.07679 16.075 5.48117L20.925 9.01354C21.3578 8.41931 21.9551 7.91263 22.6794 7.55503L20.0231 2.17507ZM20.9266 5.48336C19.5874 3.64115 17.6769 2.28275 15.5019 1.56896L13.631 7.2698C14.6595 7.60732 15.5064 8.23137 16.0734 9.01135L20.9266 5.48336ZM15.5019 1.56896C13.3282 0.855582 10.9738 0.812248 8.77422 1.44345L10.4292 7.21069C11.4753 6.9105 12.6013 6.93187 13.631 7.2698L15.5019 1.56896ZM8.77422 1.44345C6.57351 2.07497 4.61095 3.35888 3.19773 5.14535L7.90338 8.86783C8.50679 8.10505 9.38414 7.51058 10.4292 7.21069L8.77422 1.44345ZM3.19773 5.14535C1.78153 6.93559 0.998218 9.13129 1 11.4106L7 11.4059C6.9993 10.5168 7.30295 9.62684 7.90338 8.86783L3.19773 5.14535ZM1 11.4083C1 11.564 0.99845 11.8728 1.02243 12.1861L7.00493 11.7281C7.00155 11.684 7 11.6099 7 11.4083H1ZM1.0208 12.1637C1.09384 13.2221 1.60829 14.1595 2.37404 14.7958L6.2088 10.1812C6.64684 10.5452 6.96172 11.1008 7.00656 11.7506L1.0208 12.1637ZM2.37404 14.7958C3.13322 15.4267 4.08912 15.7264 5.03263 15.6812L4.74568 9.68807C5.25092 9.66388 5.77734 9.82264 6.2088 10.1812L2.37404 14.7958ZM5.02484 15.6816C5.50285 15.6599 5.97728 15.5494 6.42151 15.3511L3.97531 9.8724C4.22582 9.76055 4.48997 9.69963 4.75347 9.6877L5.02484 15.6816ZM6.42151 15.3511C6.86599 15.1526 7.27739 14.8673 7.62536 14.502L3.28114 10.3635C3.48644 10.148 3.72456 9.98436 3.97531 9.8724L6.42151 15.3511ZM7.62536 14.502C7.97381 14.1363 8.25173 13.6973 8.43141 13.2059L2.79634 11.1453C2.90667 10.8436 3.07538 10.5795 3.28114 10.3635L7.62536 14.502ZM8.43141 13.2059C8.61132 12.7139 8.68612 12.187 8.64699 11.6588L2.66339 12.1022C2.63907 11.774 2.68578 11.4477 2.79634 11.1453L8.43141 13.2059ZM8.64505 11.634C8.64443 11.6265 8.64328 11.6094 8.6425 11.574C8.64163 11.5339 8.64151 11.4898 8.64151 11.4083H2.64151C2.64151 11.5486 2.64004 11.8202 2.66533 12.127L8.64505 11.634ZM8.6415 11.4012C8.64008 10.795 8.8625 10.1768 9.31924 9.65574L4.8075 5.70047C3.41924 7.28405 2.63657 9.30257 2.64152 11.4153L8.6415 11.4012ZM9.31924 9.65574C9.78014 9.13 10.4553 8.73564 11.2502 8.58731L10.1496 2.68913C8.08699 3.07403 6.19161 4.12163 4.8075 5.70047L9.31924 9.65574ZM11.2502 8.58731C12.0461 8.43879 12.8661 8.5558 13.5599 8.90141L16.2352 3.5309C14.3584 2.59594 12.2112 2.30441 10.1496 2.68913L11.2502 8.58731ZM13.5599 8.90141C14.2509 9.24567 14.7447 9.77831 15.0056 10.3661L20.4897 7.93216C19.6357 6.00783 18.1148 4.46721 16.2352 3.5309L13.5599 8.90141ZM14.9779 10.3017C15.2818 11.0322 15.8002 11.6245 16.4294 12.0264L19.6589 6.96963C20.0195 7.19997 20.3312 7.5491 20.5174 7.99659L14.9779 10.3017ZM16.4294 12.0264C17.0567 12.427 17.778 12.6296 18.5 12.6296V6.62962C18.8966 6.62962 19.3001 6.74052 19.6589 6.96963L16.4294 12.0264ZM18.5 12.6296C19.222 12.6296 19.9433 12.427 20.5706 12.0264L17.3411 6.96963C17.6999 6.74052 18.1034 6.62962 18.5 6.62962V12.6296ZM20.5706 12.0264C21.1998 11.6245 21.7182 11.0322 22.0221 10.3017L16.4826 7.99659C16.6688 7.54909 16.9805 7.19996 17.3411 6.96963L20.5706 12.0264ZM21.9944 10.3661C22.2553 9.77831 22.7491 9.24567 23.4401 8.90141L20.7648 3.5309C18.8852 4.46721 17.3643 6.00783 16.5103 7.93216L21.9944 10.3661ZM23.4401 8.90141C24.1339 8.5558 24.9539 8.43879 25.7498 8.58731L26.8504 2.68913C24.7888 2.30441 22.6416 2.59594 20.7648 3.5309L23.4401 8.90141ZM25.7498 8.58731C26.5447 8.73564 27.2199 9.13 27.6808 9.65574L32.1925 5.70047C30.8084 4.12163 28.913 3.07403 26.8504 2.68913L25.7498 8.58731ZM27.6808 9.65574C28.1375 10.1768 28.3599 10.795 28.3585 11.4012L34.3585 11.4153C34.3634 9.30257 33.5808 7.28405 32.1925 5.70047L27.6808 9.65574ZM28.3585 11.4083C28.3585 13.6957 26.5923 16.3485 23.7448 18.9311C21.0485 21.3766 18.056 23.1532 17.0368 23.7227L19.9632 28.9606C21.16 28.292 24.5968 26.2587 27.7757 23.3754C30.8035 20.6292 34.3585 16.4344 34.3585 11.4083H28.3585ZM19.9732 23.7283C18.7178 23.0206 14.7545 20.6623 11.8242 17.5376L7.44754 21.6419C11.0286 25.4605 15.6558 28.1822 17.0268 28.955L19.9732 23.7283ZM11.8409 17.5556C11.4997 17.1857 11.0944 16.8942 10.6547 16.6882L8.10942 22.1216C7.86342 22.0064 7.63058 21.8404 7.43078 21.6239L11.8409 17.5556ZM10.6547 16.6882C10.2152 16.4824 9.74449 16.3632 9.26874 16.3319L8.87442 22.3189C8.61487 22.3018 8.35517 22.2367 8.10942 22.1216L10.6547 16.6882ZM9.26874 16.3319C8.79305 16.3005 8.31307 16.357 7.85424 16.501L9.65021 22.2259C9.39682 22.3054 9.13392 22.336 8.87442 22.3189L9.26874 16.3319ZM7.85424 16.501C7.39525 16.645 6.9593 16.876 6.57508 17.1899L10.3712 21.8364C10.15 22.0171 9.90377 22.1463 9.65021 22.2259L7.85424 16.501ZM6.55692 17.2048C5.79664 17.836 5.28336 18.764 5.20395 19.8137L11.1869 20.2663C11.1381 20.9106 10.8242 21.4604 10.3893 21.8214L6.55692 17.2048ZM5.20395 19.8137C5.12437 20.8656 5.49405 21.8701 6.16978 22.6145L10.6123 18.5816C11.0065 19.0159 11.2358 19.6198 11.1869 20.2663L5.20395 19.8137ZM6.20445 22.652C10.6393 27.3732 16.4118 30.4093 16.7746 30.5885L19.432 25.2091C19.4412 25.2136 18.1467 24.5408 16.3607 23.3419C14.5764 22.1441 12.4057 20.4902 10.5776 18.5441L6.20445 22.652ZM16.6547 30.5259C17.2264 30.8411 17.8629 31 18.5 31V25C18.858 25 19.2205 25.089 19.5519 25.2717L16.6547 30.5259ZM18.5 31C19.1371 31 19.7736 30.8411 20.3453 30.5259L17.4481 25.2717C17.7795 25.089 18.142 25 18.5 25V31ZM20.3333 30.5325C22.9975 29.0792 25.502 27.3785 27.8085 25.4545L23.9651 20.847C21.9636 22.5167 19.7846 23.9972 17.4601 25.2651L20.3333 30.5325ZM27.8179 25.4466C32.804 21.2527 36 16.5471 36 11.4083H30C30 13.9276 28.4083 17.1098 23.9557 20.8549L27.8179 25.4466ZM36 11.4083C36 8.57955 34.7938 5.91251 32.7228 3.9802L28.6296 8.36712C29.5344 9.21142 30 10.3103 30 11.4083H36ZM32.7228 3.9802C30.6589 2.05443 27.9014 1.00541 25.066 1.00541V7.00541C26.4391 7.00541 27.7177 7.51627 28.6296 8.36712L32.7228 3.9802Z" fill="white" mask="url(#path-1-inside-1_1_864)"/>
</g>
<defs>
<filter id="filter0_d_1_864" x="0" y="0" width="37" height="32" filterUnits="userSpaceOnUse" color-interpolation-filters="sRGB">
<feFlood flood-opacity="0" result="BackgroundImageFix"/>
<feColorMatrix in="SourceAlpha" type="matrix" values="0 0 0 0 0 0 0 0 0 0 0 0 0 0 0 0 0 0 127 0" result="hardAlpha"/>
<feOffset/>
<feGaussianBlur stdDeviation="2"/>
<feComposite in2="hardAlpha" operator="out"/>
<feColorMatrix type="matrix" values="0 0 0 0 1 0 0 0 0 1 0 0 0 0 1 0 0 0 0.25 0"/>
<feBlend mode="normal" in2="BackgroundImageFix" result="effect1_dropShadow_1_864"/>
<feBlend mode="normal" in="SourceGraphic" in2="effect1_dropShadow_1_864" result="shape"/>
</filter>
</defs>
</svg>
