<svg width="10" height="10" viewBox="0 0 10 10" fill="none" xmlns="http://www.w3.org/2000/svg">
<g clip-path="url(#clip0_13_23261)">
<path d="M2.08337 6.25001H1.66671C1.44569 6.25001 1.23373 6.16221 1.07745 6.00593C0.921171 5.84965 0.833374 5.63769 0.833374 5.41668V1.66668C0.833374 1.44566 0.921171 1.2337 1.07745 1.07742C1.23373 0.921141 1.44569 0.833344 1.66671 0.833344H5.41671C5.63772 0.833344 5.84968 0.921141 6.00596 1.07742C6.16224 1.2337 6.25004 1.44566 6.25004 1.66668V2.08334M4.58337 3.75001H8.33337C8.79361 3.75001 9.16671 4.12311 9.16671 4.58334V8.33334C9.16671 8.79358 8.79361 9.16668 8.33337 9.16668H4.58337C4.12314 9.16668 3.75004 8.79358 3.75004 8.33334V4.58334C3.75004 4.12311 4.12314 3.75001 4.58337 3.75001Z" stroke="#44424D" stroke-linecap="round" stroke-linejoin="round"/>
</g>
<defs>
<clipPath id="clip0_13_23261">
<rect width="10" height="10" fill="white"/>
</clipPath>
</defs>
</svg>
