<svg width="23" height="14" viewBox="0 0 23 14" fill="none" xmlns="http://www.w3.org/2000/svg">
<rect width="23" height="14" fill="url(#paint0_linear_13_21656)"/>
<path fill-rule="evenodd" clip-rule="evenodd" d="M23 0H0V14H23V0ZM20.7071 4.70711C21.0976 4.31658 21.0976 3.68342 20.7071 3.29289C20.3166 2.90237 19.6834 2.90237 19.2929 3.29289L16.2929 6.29289C15.9024 6.68342 15.9024 7.31658 16.2929 7.70711L19.2929 10.7071C19.6834 11.0976 20.3166 11.0976 20.7071 10.7071C21.0976 10.3166 21.0976 9.68342 20.7071 9.29289L18.4142 7L20.7071 4.70711ZM13.7071 3.29289C14.0976 3.68342 14.0976 4.31658 13.7071 4.70711L11.4142 7L13.7071 9.29289C14.0976 9.68342 14.0976 10.3166 13.7071 10.7071C13.3166 11.0976 12.6834 11.0976 12.2929 10.7071L9.29289 7.70711C8.90237 7.31658 8.90237 6.68342 9.29289 6.29289L12.2929 3.29289C12.6834 2.90237 13.3166 2.90237 13.7071 3.29289ZM6.70711 4.70711C7.09763 4.31658 7.09763 3.68342 6.70711 3.29289C6.31658 2.90237 5.68342 2.90237 5.29289 3.29289L2.29289 6.29289C1.90237 6.68342 1.90237 7.31658 2.29289 7.70711L5.29289 10.7071C5.68342 11.0976 6.31658 11.0976 6.70711 10.7071C7.09763 10.3166 7.09763 9.68342 6.70711 9.29289L4.41421 7L6.70711 4.70711Z" fill="#0C0A15"/>
<defs>
<linearGradient id="paint0_linear_13_21656" x1="23" y1="6" x2="1.19599" y2="8.62681" gradientUnits="userSpaceOnUse">
<stop stop-color="#5C6AC4"/>
<stop offset="1" stop-color="#9C27B0"/>
</linearGradient>
</defs>
</svg>
