<svg width="12" height="11" viewBox="0 0 12 11" fill="none" xmlns="http://www.w3.org/2000/svg">
<path id="Vector" fill-rule="evenodd" clip-rule="evenodd" d="M7.2208 5.91307C7.15261 5.91816 6.80032 5.93908 6.01449 5.93908C5.38946 5.93908 4.94569 5.92042 4.79 5.91307C2.37454 5.80733 0.571618 5.38889 0.571618 4.88788C0.571618 4.38688 2.37454 3.969 4.79 3.86156V5.49632C4.94796 5.50763 5.40026 5.53421 6.02529 5.53421C6.77532 5.53421 7.15091 5.50311 7.21852 5.49689V3.86269C9.62887 3.96957 11.4278 4.38801 11.4278 4.88788C11.4278 5.38776 9.62943 5.8062 7.21852 5.91251L7.2208 5.91307ZM7.2208 3.69362V2.23076H10.5846V0H1.4262V2.23076H4.78943V3.69306C2.05578 3.81802 0 4.35691 0 5.00267C0 5.64844 2.05578 6.18676 4.78943 6.31229V11H7.22023V6.3106C9.94763 6.18563 12 5.6473 12 5.00211C12 4.35691 9.94934 3.81859 7.22023 3.69306L7.2208 3.69362Z" fill="white"/>
</svg>
