<svg width="21" height="21" viewBox="0 0 21 21" fill="none" xmlns="http://www.w3.org/2000/svg">
<path d="M17.0323 13.7227H18.0215C18.5463 13.7227 19.0495 13.5165 19.4205 13.1494C19.7916 12.7823 20 12.2845 20 11.7653V2.95734C20 2.43822 19.7916 1.94036 19.4205 1.57329C19.0495 1.20622 18.5463 1 18.0215 1H9.11849C8.59377 1 8.09054 1.20622 7.71951 1.57329C7.34848 1.94036 7.14003 2.43822 7.14003 2.95734V3.936M11.8815 7.27732H2.97846C1.88578 7.27732 1 8.15365 1 9.23465V18.0427C1 19.1237 1.88578 20 2.97846 20H11.8815C12.9742 20 13.86 19.1237 13.86 18.0427V9.23465C13.86 8.15365 12.9742 7.27732 11.8815 7.27732Z" stroke="white" stroke-width="2" stroke-linecap="round" stroke-linejoin="round"/>
</svg>
